<svg width="512" height="512" viewBox="0 0 512 512" fill="none" xmlns="http://www.w3.org/2000/svg">
<g clip-path="url(#clip0_65_2)">
<path d="M262 476C262 470.477 266.477 466 272 466H284C289.523 466 294 470.477 294 476V488C294 493.523 289.523 498 284 498H272C266.477 498 262 493.523 262 488V476Z" fill="white"/>
<path d="M230 444C230 438.477 234.477 434 240 434H252C257.523 434 262 438.477 262 444V456C262 461.523 257.523 466 252 466H240C234.477 466 230 461.523 230 456V444Z" fill="white"/>
<path d="M190 402V418H174V402H190ZM198 394V378C198 373.582 194.418 370 190 370H174C169.582 370 166 373.582 166 378V394C166 398.418 169.582 402 174 402V418C160.745 418 150 407.255 150 394V378C150 364.745 160.745 354 174 354H190C203.255 354 214 364.745 214 378V394C214 407.255 203.255 418 190 418V402C194.418 402 198 398.418 198 394Z" fill="white"/>
<path d="M171 381C171 377.686 173.686 375 177 375H187C190.314 375 193 377.686 193 381V391C193 394.314 190.314 397 187 397H177C173.686 397 171 394.314 171 391V381Z" fill="white"/>
<path d="M270 402V418H254V402H270ZM278 394V378C278 373.582 274.418 370 270 370H254C249.582 370 246 373.582 246 378V394C246 398.418 249.582 402 254 402V418C240.745 418 230 407.255 230 394V378C230 364.745 240.745 354 254 354H270C283.255 354 294 364.745 294 378V394C294 407.255 283.255 418 270 418V402C274.418 402 278 398.418 278 394Z" fill="white"/>
<path d="M251 381C251 377.686 253.686 375 257 375H267C270.314 375 273 377.686 273 381V391C273 394.314 270.314 397 267 397H257C253.686 397 251 394.314 251 391V381Z" fill="white"/>
<path d="M190 482V498H174V482H190ZM198 474V458C198 453.582 194.418 450 190 450H174C169.582 450 166 453.582 166 458V474C166 478.418 169.582 482 174 482V498C160.745 498 150 487.255 150 474V458C150 444.745 160.745 434 174 434H190C203.255 434 214 444.745 214 458V474C214 487.255 203.255 498 190 498V482C194.418 482 198 478.418 198 474Z" fill="white"/>
<path d="M171 461C171 457.686 173.686 455 177 455H187C190.314 455 193 457.686 193 461V471C193 474.314 190.314 477 187 477H177C173.686 477 171 474.314 171 471V461Z" fill="white"/>
<path d="M101.941 402L101.287 402.654H96.7129L96.0594 403.308H94.099L93.4455 403.963H92.7921L92.1386 404.617H90.8317L90.1782 405.271H89.5248L88.8713 405.925H88.2178L86.9109 407.234H86.2574L84.9505 408.542H84.297L82.3366 410.505H81.6832L75.802 416.393V417.047L74.495 418.355V419.009L73.1881 420.318V420.972L71.8812 422.28V422.935L71.2277 423.589V424.243L70.5743 424.897V426.206L69.9208 426.86V427.514L69.2673 428.168V429.477L68.6139 430.131V432.093L67.9604 432.748V434.056L67.3069 434.71V437.327L66.6535 437.981V443.215L66 443.869V445.178L66.6535 445.832V450.411L67.3069 451.065V452.374L67.9604 453.028V454.336L68.6139 454.991V455.645L69.2673 456.299V456.953L69.9208 457.608V458.262L71.2277 459.57V460.224L77.1089 466.112H77.7624L79.0693 467.421H79.7228L81.0297 468.729H82.3366L82.9901 469.383H83.6436L84.297 470.037H85.604L86.2574 470.692H87.5644L88.2178 471.346H91.4851L92.1386 472H98.0198L98.6733 471.346H101.287L101.941 470.692H103.901L104.554 470.037H105.861L106.515 469.383H107.168L107.822 468.729H108.475L109.129 468.075H109.782L110.436 467.421H111.089L111.743 466.766H112.396L114.356 464.804H115.01L123.505 456.299V455.645L125.465 453.682V453.028L126.772 451.72V451.065L127.426 450.411V449.757L128.079 449.103V448.449L128.733 447.794V447.14L129.386 446.486V445.178L130.04 444.523V443.215L130.693 442.561V441.252L131.347 440.598V437.981L132 437.327V428.168L131.347 427.514V424.897L130.693 424.243V422.935L130.04 422.28V420.972L129.386 420.318V419.664L128.733 419.009V418.355L128.079 417.701V417.047L127.426 416.393V415.738L126.119 414.43V413.776L120.238 407.888H119.584L118.931 407.234H118.277L116.97 405.925H116.317L115.663 405.271H115.01L114.356 404.617H113.703L113.049 403.963H111.743L111.089 403.308H109.129L108.475 402.654H103.901L103.248 402H101.941Z" fill="white"/>
<path d="M239.106 287L238.447 287.663H235.153L234.494 288.325H233.176L232.518 288.988H231.2L230.541 289.65H229.882L228.565 290.975H227.906L223.294 295.613V296.275L222.635 296.938V297.6L221.976 298.263V299.587L221.318 300.25V301.575L220.659 302.238V305.55L220 306.212V312.175L220.659 312.837V315.488L221.318 316.15V317.475L221.976 318.138V319.463L222.635 320.125V320.788L223.294 321.45V322.112L223.953 322.775V323.438L224.612 324.1V324.763L226.588 326.75V327.413L229.224 330.062H229.882L232.518 332.713H233.176L234.494 334.038H235.153L235.812 334.7H236.471L237.788 336.025H238.447L239.106 336.688H240.424L241.082 337.35H241.741L242.4 338.013H243.718L244.376 338.675H245.694L246.353 339.338H248.329L248.988 340H261.506L262.165 339.338H263.482L264.141 338.675H264.8L265.459 338.013H266.118L266.776 337.35H267.435L268.753 336.025H269.412L271.388 334.038V333.375L272.706 332.05V331.388L273.365 330.725V330.062L274.024 329.4V328.737L274.682 328.075V326.75L275.341 326.088V322.775L276 322.112V316.15L275.341 315.488V312.175L274.682 311.513V309.525L274.024 308.863V308.2L273.365 307.538V306.212L272.706 305.55V304.888L272.047 304.225V303.562L271.388 302.9V302.238L270.071 300.913V300.25L262.165 292.3H261.506L260.847 291.638H260.188L259.529 290.975H258.871L258.212 290.312H257.553L256.894 289.65H256.235L255.576 288.988H254.259L253.6 288.325H251.624L250.965 287.663H247.671L247.012 287H239.106Z" fill="white"/>
<path d="M180.862 242L180.2 242.654H177.554L176.892 243.309H175.569L174.908 243.963H174.246L173.585 244.617H172.923L167.631 249.852V250.506L166.969 251.16V251.815L166.308 252.469V253.123L165.646 253.778V254.432L164.985 255.086V256.395L164.323 257.049V259.012L163.662 259.667V263.593L163 264.247V269.482L163.662 270.136V274.716L164.323 275.37V277.333L164.985 277.988V279.296L165.646 279.951V281.259L166.308 281.914V282.568L166.969 283.222V283.877L167.631 284.531V285.185L168.954 286.494V287.148L174.246 292.383H174.908L176.231 293.691H176.892L177.554 294.346H178.877L179.538 295H187.477L188.138 294.346H189.462L190.123 293.691H191.446L192.108 293.037H192.769L194.092 291.728H194.754L196.738 289.765H197.4L199.385 287.802V287.148L201.369 285.185V284.531L202.692 283.222V282.568L203.354 281.914V281.259L204.015 280.605V279.296L204.677 278.642V277.333L205.338 276.679V274.716L206 274.062V266.21L205.338 265.556V263.593L204.677 262.938V261.63L204.015 260.975V260.321L203.354 259.667V258.358L202.692 257.704V257.049L201.369 255.741V255.086L200.708 254.432V253.778L198.062 251.16V250.506L195.415 247.889H194.754L192.769 245.926H192.108L190.785 244.617H189.462L188.8 243.963H188.138L187.477 243.309H186.154L185.492 242.654H182.846L182.185 242H180.862Z" fill="white"/>
<path d="M274.917 209L274.278 209.649H272.361L271.722 210.297H270.444L269.806 210.946H268.528L267.889 211.595H267.25L266.611 212.243H265.972L265.333 212.892H264.694L264.056 213.541H263.417L261.5 215.486H260.861L255.75 220.676V221.324L254.472 222.622V223.27L253.194 224.568V225.216L252.556 225.865V227.162L251.917 227.811V229.108L251.278 229.757V231.054L250.639 231.703V234.946L250 235.595V242.73L250.639 243.378V245.973L251.278 246.622V247.27L251.917 247.919V249.216L252.556 249.865V250.514L256.389 254.405H257.028L257.667 255.054H258.306L258.944 255.703H260.222L260.861 256.351H263.417L264.056 257H268.528L269.167 256.351H273L273.639 255.703H274.917L275.556 255.054H276.833L277.472 254.405H278.111L278.75 253.757H279.389L280.028 253.108H280.667L281.306 252.459H281.944L283.222 251.162H283.861L285.778 249.216H286.417L288.972 246.622V245.973L290.889 244.027V243.378L292.167 242.081V241.432L292.806 240.784V240.135L293.444 239.486V238.838L294.083 238.189V236.892L294.722 236.243V234.946L295.361 234.297V232.351L296 231.703V223.27L295.361 222.622V220.676L294.722 220.027V218.73L294.083 218.081V217.432L293.444 216.784V216.135L292.167 214.838V214.189L288.972 210.946H288.333L287.694 210.297H286.417L285.778 209.649H284.5L283.861 209H274.917Z" fill="white"/>
<path d="M270 105L269.333 105.641H268L267.333 106.283H266.667L265.333 107.565H264.667L262.667 109.489V110.13L261.333 111.413V112.054L260.667 112.696V113.337L260 113.978V115.261L259.333 115.902V117.826L258.667 118.467V122.957L258 123.598V126.804L258.667 127.446V133.217L259.333 133.859V137.065L260 137.707V139.63L260.667 140.272V142.196L261.333 142.837V144.12L262 144.761V146.043L262.667 146.685V147.967L263.333 148.609V149.25L264 149.891V150.533L264.667 151.174V151.815L265.333 152.457V153.098L266 153.739V154.38L266.667 155.022V155.663L268 156.946V157.587L272.667 162.076H273.333L274 162.717H274.667L275.333 163.359H276.667L277.333 164H280.667L281.333 163.359H282.667L283.333 162.717H284L284.667 162.076H285.333L288.667 158.87V158.228L290 156.946V156.304L290.667 155.663V155.022L291.333 154.38V153.098L292 152.457V151.174L292.667 150.533V149.25L293.333 148.609V146.043L294 145.402V130.011L293.333 129.37V126.804L292.667 126.163V124.88L292 124.239V122.315L291.333 121.674V121.033L290.667 120.391V119.75L290 119.109V118.467L289.333 117.826V117.185L288.667 116.543V115.902L288 115.261V114.62L286 112.696V112.054L282.667 108.848H282L280 106.924H279.333L278.667 106.283H278L277.333 105.641H275.333L274.667 105H270Z" fill="white"/>
<path d="M329.125 73L328.453 73.6452H327.109L326.438 74.2903H325.094L324.422 74.9355H323.75L323.078 75.5806H322.406L320.391 77.5161H319.719L318.375 78.8065V79.4516L316.359 81.3871V82.0323L315.688 82.6774V83.3226L315.016 83.9678V84.6129L314.344 85.2581V86.5484L313.672 87.1936V89.7742L313 90.4194V96.871L313.672 97.5161V100.097L314.344 100.742V102.032L315.016 102.677V103.323L316.359 104.613V105.258L320.391 109.129H321.062L322.406 110.419H323.078L323.75 111.065H324.422L325.094 111.71H326.438L327.109 112.355H328.453L329.125 113H339.203L339.875 112.355H341.219L341.891 111.71H343.234L343.906 111.065H344.578L345.25 110.419H345.922L347.938 108.484H348.609L351.969 105.258V104.613L353.312 103.323V102.677L354.656 101.387V100.097L355.328 99.4516V98.1613L356 97.5161V89.129L355.328 88.4839V87.1936L354.656 86.5484V85.2581L353.984 84.6129V83.9678L353.312 83.3226V82.6774L351.297 80.7419V80.0968L347.938 76.871H347.266L345.922 75.5806H345.25L344.578 74.9355H343.906L343.234 74.2903H342.562L341.891 73.6452H339.875L339.203 73H329.125Z" fill="white"/>
<path d="M275.592 0L274.939 0.695652H269.061L268.408 1.3913H264.49L263.837 2.08696H259.918L259.265 2.78261H256.653L256 3.47826H252.735L252.082 4.17391H249.469L248.816 4.86957H246.857L246.204 5.56522H244.245L243.592 6.26087H241.633L240.98 6.95652H239.02L238.367 7.65217H236.408L235.755 8.34783H234.449L233.796 9.04348H232.49L231.837 9.73913H229.878L229.224 10.4348H227.918L227.265 11.1304H225.959L225.306 11.8261H224L223.347 12.5217H222.041L221.388 13.2174H220.082L219.429 13.913H218.776L218.122 14.6087H216.816L216.163 15.3043H214.857L214.204 16H213.551L212.898 16.6957H211.592L210.939 17.3913H210.286L209.633 18.087H208.98L208.327 18.7826H207.02L206.367 19.4783H205.714L205.061 20.1739H204.408L203.755 20.8696H202.449L201.796 21.5652H201.143L200.49 22.2609H199.837L199.184 22.9565H198.531L197.878 23.6522H197.224L196.571 24.3478H195.918L195.265 25.0435H194.612L193.959 25.7391H193.306L192.653 26.4348H192L191.347 27.1304H190.694L190.041 27.8261H189.388L188.735 28.5217H188.082L187.429 29.2174H186.776L185.469 30.6087H184.816L184.163 31.3043H183.51L182.857 32H182.204L181.551 32.6957H180.898L179.592 34.087H178.939L178.286 34.7826H177.633L176.327 36.1739H175.673L175.02 36.8696H174.367L173.061 38.2609H172.408L171.102 39.6522H170.449L169.143 41.0435H168.49L167.184 42.4348H166.531L165.224 43.8261H164.571L163.265 45.2174H162.612L161.306 46.6087H160.653L158.694 48.6957H158.041L156.082 50.7826H155.429L153.469 52.8696H152.816L150.204 55.6522H149.551L146.286 59.1304H145.633L140.408 64.6957H139.755L123.429 82.087V82.7826L118.204 88.3478V89.0435L114.939 92.5218V93.2174L112.327 96V96.6957L110.367 98.7826V99.4783L109.061 100.87V101.565L107.755 102.957V103.652L106.449 105.043V105.739L105.796 106.435V107.13L105.143 107.826V108.522L104.49 109.217V109.913L103.837 110.609V112L103.184 112.696V113.391L102.531 114.087V115.478L101.878 116.174V118.261L101.224 118.957V121.739L100.571 122.435V137.739L101.224 138.435V141.217L101.878 141.913V144L102.531 144.696V146.087L103.184 146.783V148.174L103.837 148.87V150.261L104.49 150.957V151.652L105.143 152.348V153.044L105.796 153.739V155.13L106.449 155.826V156.522L107.755 157.913V158.609L108.408 159.304V160L109.061 160.696V161.391L110.367 162.783V163.478L111.02 164.174V164.87L112.327 166.261V166.957L113.633 168.348V169.044L115.592 171.13V171.826L117.551 173.913V174.609L119.51 176.696V177.391L122.776 180.87V181.565L139.102 198.957V200.348L138.449 201.044V202.435L137.796 203.13V204.522L137.143 205.217V206.609L136.49 207.304V208.696L135.837 209.391V210.087L135.184 210.783V212.174L134.531 212.87V214.261L133.878 214.957V216.348L133.225 217.044V218.435L132.571 219.13V219.826L131.918 220.522V221.913L131.265 222.609V223.304L130.612 224V225.391L129.959 226.087V227.478L129.306 228.174V228.87L128.653 229.565V230.957L128 231.652V232.348L127.347 233.044V234.435L126.694 235.13V235.826L126.041 236.522V237.913L125.388 238.609V239.304L124.735 240V240.696L124.082 241.391V242.783L123.429 243.478V244.174L122.776 244.87V245.565L122.122 246.261V247.652L121.469 248.348V249.044L120.816 249.739V250.435L120.163 251.13V251.826L119.51 252.522V253.913L118.857 254.609V255.304L118.204 256V256.696L117.551 257.391V258.087L116.898 258.783V259.478L116.245 260.174V260.87L115.592 261.565V262.261L114.939 262.957V263.652L114.286 264.348V265.043L113.633 265.739V266.435L112.98 267.13V267.826L112.327 268.522V269.217L111.673 269.913V270.609L111.02 271.304V272L110.367 272.696V273.391L109.714 274.087V274.783L109.061 275.478V276.174L108.408 276.87V277.565L107.755 278.261V278.957L106.449 280.348V281.043L105.796 281.739V282.435L105.143 283.13V283.826L104.49 284.522V285.217L103.184 286.609V287.304L102.531 288V288.696L101.878 289.391V290.087L100.571 291.478V292.174L99.9184 292.87V293.565L98.6122 294.957V295.652L97.9592 296.348V297.043L97.3061 297.739V298.435L96 299.826V300.522L94.6939 301.913V302.609L94.0408 303.304V304L92.7347 305.391V306.087L92.0816 306.783V307.478L90.7755 308.87V309.565L89.4694 310.957V311.652L88.1633 313.043V313.739L87.5102 314.435V315.13L86.2041 316.522V317.217L84.2449 319.304V320L82.9388 321.391V322.087L81.6327 323.478V324.174L80.3265 325.565V326.261L79.0204 327.652V328.348L77.7143 329.739V330.435L76.4082 331.826V332.522L74.449 334.609V335.304L73.1429 336.696V337.391L71.1837 339.478V340.174L69.8775 341.565V342.261L68.5714 343.652V344.348L66.6123 346.435V347.13L65.3061 348.522V349.217L63.3469 351.304V352L61.3878 354.087V354.783L60.0816 356.174V356.87L58.1224 358.957V359.652L56.8163 361.043V361.739L54.8571 363.826V364.522L53.551 365.913V366.609L52.2449 368V368.696L50.9388 370.087V370.783L49.6327 372.174V372.87L47.6735 374.957V375.652L47.0204 376.348V377.043L45.7143 378.435V379.13L44.4082 380.522V381.217L43.102 382.609V383.304L41.7959 384.696V385.391L41.1429 386.087V386.783L39.8367 388.174V388.87L39.1837 389.565V390.261L37.8776 391.652V392.348L37.2245 393.043V393.739L35.9184 395.13V395.826L35.2653 396.522V397.217L34.6122 397.913V398.609L33.3061 400V400.696L32.6531 401.391V402.087L32 402.783V403.478L30.6939 404.87V405.565L30.0408 406.261V406.957L29.3878 407.652V408.348L28.7347 409.043V409.739L28.0816 410.435V411.13L27.4286 411.826V412.522L26.7755 413.217V413.913L26.1224 414.609V415.304L25.4694 416V416.696L24.8163 417.391V418.087L24.1633 418.783V419.478L23.5102 420.174V420.87L22.8571 421.565V422.261L22.2041 422.957V423.652L21.551 424.348V425.739L20.898 426.435V427.13L20.2449 427.826V428.522L19.5918 429.217V429.913L18.9388 430.609V432L18.2857 432.696V433.391L17.6327 434.087V434.783L16.9796 435.478V436.87L16.3265 437.565V438.261L15.6735 438.957V440.348L15.0204 441.043V441.739L14.3673 442.435V443.826L13.7143 444.522V445.913L13.0612 446.609V447.304L12.4082 448V449.391L11.7551 450.087V451.478L11.102 452.174V453.565L10.449 454.261V455.652L9.79592 456.348V457.739L9.14286 458.435V459.826L8.4898 460.522V462.609L7.83674 463.304V464.696L7.18367 465.391V467.478L6.53061 468.174V470.261L5.87755 470.957V473.043L5.22449 473.739V475.826L4.57143 476.522V478.609L3.91837 479.304V482.087L3.26531 482.783V486.261L2.61225 486.957V490.435L1.95918 491.13V495.304L1.30612 496V501.565L0.653061 502.261V509.913L0 510.609V511.304L0.653061 512L1.30612 511.304H22.8571V512V509.217L23.5102 508.522V503.652L24.1633 502.957V498.783L24.8163 498.087V493.913L25.4694 493.217V489.739L26.1224 489.043V486.261L26.7755 485.565V482.783L27.4286 482.087V479.304L28.0816 478.609V476.522L28.7347 475.826V473.739L29.3878 473.043V470.957L30.0408 470.261V468.174L30.6939 467.478V465.391L31.3469 464.696V463.304L32 462.609V461.217L32.6531 460.522V458.435L33.3061 457.739V456.348L33.9592 455.652V454.261L34.6122 453.565V452.174L35.2653 451.478V450.087L35.9184 449.391V448.696L36.5714 448V446.609L37.2245 445.913V444.522L37.8776 443.826V443.13L38.5306 442.435V441.043L39.1837 440.348V439.652L39.8367 438.957V437.565L40.4898 436.87V436.174L41.1429 435.478V434.087L41.7959 433.391V432.696L42.449 432V431.304L43.102 430.609V429.913L43.7551 429.217V427.826L44.4082 427.13V426.435L45.0612 425.739V425.043L45.7143 424.348V423.652L46.3674 422.957V422.261L47.0204 421.565V420.87L47.6735 420.174V419.478L48.3265 418.783V418.087L48.9796 417.391V416.696L49.6327 416V415.304L50.2857 414.609V413.913L50.9388 413.217V412.522L51.5918 411.826V411.13L52.898 409.739V409.043L53.551 408.348V407.652L54.2041 406.957V406.261L55.5102 404.87V404.174L56.1633 403.478V402.783L56.8163 402.087V401.391L58.1224 400V399.304L58.7755 398.609V397.913L60.0816 396.522V395.826L60.7347 395.13V394.435L62.0408 393.043V392.348L63.3469 390.957V390.261L64.6531 388.87V388.174L65.3061 387.478V386.783L67.2653 384.696V384L69.2245 381.913L69.8775 382.609H70.5306L71.8367 384H72.4898L73.1429 384.696H73.7959L75.102 386.087H75.7551L76.4082 386.783H77.0612L77.7143 387.478H78.3674L79.0204 388.174H79.6735L80.3265 388.87H80.9796L81.6327 389.565H82.9388L83.5918 390.261H84.2449L84.898 390.957H86.2041L86.8571 391.652H88.1633L88.8163 392.348H90.1225L90.7755 393.043H92.7347L93.3878 393.739H97.3061L97.9592 394.435H107.755L108.408 393.739H111.673L112.327 393.043H114.286L114.939 392.348H116.898L117.551 391.652H118.857L119.51 390.957H120.163L120.816 390.261H121.469L122.122 389.565H123.429L124.082 388.87H124.735L126.041 387.478H126.694L127.347 386.783H128L129.306 385.391H129.959L131.918 383.304H132.571L139.755 375.652V374.957L141.714 372.87V372.174L143.02 370.783V370.087L144.327 368.696V368L144.98 367.304V366.609L145.633 365.913V365.217L146.286 364.522V363.826L146.939 363.13V362.435L147.592 361.739V360.348L148.245 359.652V358.261L148.898 357.565V356.174L149.551 355.478V353.391L150.204 352.696V349.913L150.857 349.217V344.348L151.51 343.652V336.696L150.857 336V330.435L150.204 329.739V326.957L149.551 326.261V324.87L148.898 324.174V322.783L148.245 322.087V321.391L147.592 320.696V319.304L146.939 318.609V317.913L146.286 317.217V316.522L144.98 315.13V314.435L143.673 313.043V312.348L141.061 309.565V308.87L135.837 303.304H135.184L132.571 300.522H131.918L130.612 299.13H129.959L128.653 297.739H128L126.694 296.348H126.041L125.388 295.652H124.735L123.429 294.261L124.082 293.565V292.87L125.388 291.478V290.783L126.041 290.087V289.391L126.694 288.696V288L127.347 287.304V286.609L128 285.913V285.217L128.653 284.522V283.826L129.306 283.13V282.435L129.959 281.739V281.043L130.612 280.348V279.652L131.265 278.957V278.261L131.918 277.565V276.87L132.571 276.174V275.478L133.225 274.783V274.087L133.878 273.391V272.696L134.531 272V271.304L135.184 270.609V269.913L135.837 269.217V267.826L136.49 267.13V266.435L137.143 265.739V265.043L137.796 264.348V263.652L138.449 262.957V262.261L139.102 261.565V260.174L139.755 259.478V258.783L140.408 258.087V257.391L141.061 256.696V256L141.714 255.304V253.913L142.367 253.217V252.522L143.02 251.826V251.13L143.673 250.435V249.044L144.327 248.348V247.652L144.98 246.957V245.565L145.633 244.87V244.174L146.286 243.478V242.087L146.939 241.391V240.696L147.592 240V238.609L148.245 237.913V237.217L148.898 236.522V235.13L149.551 234.435V233.739L150.204 233.044V231.652L150.857 230.957V229.565L151.51 228.87V228.174L152.163 227.478V226.087L152.816 225.391V224L153.469 223.304V222.609L154.122 221.913V220.522L154.776 219.826V218.435L155.429 217.739V217.044L156.082 216.348V214.957L156.735 214.261L159.347 217.044H160L161.959 219.13H162.612L163.918 220.522H164.571L165.878 221.913H166.531L167.837 223.304H168.49L169.796 224.696H170.449L171.102 225.391H171.755L172.408 226.087H173.061L174.367 227.478H175.02L175.673 228.174H176.327L176.98 228.87H177.633L178.286 229.565H178.939L179.592 230.261H180.245L180.898 230.957H181.551L182.204 231.652H182.857L183.51 232.348H184.163L184.816 233.044H186.122L186.776 233.739H188.082L188.735 234.435H189.388L190.041 235.13H191.347L192 235.826H193.959L194.612 236.522H196.571L197.224 237.217H201.796L202.449 237.913H207.02L207.673 237.217H210.939L211.592 236.522H213.551L214.204 235.826H215.51L216.163 235.13H216.816L217.469 234.435H218.122L218.776 233.739H219.429L220.735 232.348H221.388L222.694 230.957H223.347L228.571 225.391V224.696L230.531 222.609V221.913L231.184 221.217V220.522L232.49 219.13V218.435L233.143 217.739V217.044L233.796 216.348V215.652L234.449 214.957V213.565L235.102 212.87V212.174L235.755 211.478V210.087L236.408 209.391V208L237.061 207.304V205.913L237.714 205.217V203.826L238.367 203.13V201.739L239.02 201.044V198.957L239.673 198.261V196.174L240.327 195.478V193.391L240.98 192.696V189.913L241.633 189.217V187.13L242.286 186.435V183.652L242.939 182.957V179.478L243.592 178.783V175.304L244.245 174.609V170.435L244.898 169.739V164.87L245.551 164.174V159.304L246.204 158.609V153.739L246.857 153.044V146.783L247.51 146.087V140.522L248.163 139.826V133.565L248.816 132.87V126.609L249.469 125.913V119.652L250.122 118.957V112L250.776 111.304V105.043L251.429 104.348V98.087L252.082 97.3913V91.1304L252.735 90.4348V84.1739L253.388 83.4783V77.2174L254.041 76.5218V70.9565L254.694 70.2609V64.6957L255.347 64V59.8261L256 59.1304V54.2609L256.653 53.5652V49.3913L257.306 48.6957V43.8261L257.959 43.1304V37.5652L258.612 36.8696V29.2174L259.265 28.5217V25.7391L260.571 24.3478H263.837L264.49 23.6522H268.408L269.061 22.9565H274.286L274.939 22.2609H301.061L301.714 22.9565H307.592L308.245 23.6522H312.163L312.816 24.3478H316.082L316.735 25.0435H318.694L319.347 25.7391H321.959L322.612 26.4348H323.918L324.571 27.1304H325.878L326.531 27.8261H327.837L328.49 28.5217H329.143L329.796 29.2174H331.102L331.755 29.913H332.408L333.061 30.6087H333.714L334.367 31.3043H335.02L335.673 32H336.327L336.98 32.6957H337.633L338.286 33.3913H338.939L339.592 34.087H340.245L340.898 34.7826H341.551L342.204 35.4783H342.857L343.51 36.1739H344.163L345.469 37.5652H346.122L346.776 38.2609H347.429L348.735 39.6522H349.388L350.694 41.0435H351.347L352.653 42.4348H353.306L355.918 45.2174H356.571L359.837 48.6957H360.49L368.327 57.0435V57.7391L370.939 60.5217V61.2174L372.898 63.3043V64L374.204 65.3913V66.087L374.857 66.7826V67.4783L376.163 68.8696V69.5652L376.816 70.2609V70.9565L377.469 71.6522V72.3478L378.122 73.0435V73.7391L378.776 74.4348V75.1304L379.429 75.8261V76.5218L380.082 77.2174V77.913L380.735 78.6087V79.3044L381.388 80V80.6957L382.694 82.087V82.7826L383.347 83.4783V84.1739L384 84.8696V85.5652L384.653 86.2609V86.9565L385.959 88.3478V89.0435L387.265 90.4348V91.1304L397.061 101.565H397.714L399.673 103.652H400.327L400.98 104.348H401.633L402.939 105.739H403.592L404.245 106.435H404.898L405.551 107.13H406.204L406.857 107.826H407.51L408.163 108.522H408.816L409.469 109.217H410.776L411.429 109.913H412.735L413.388 110.609H414.694L415.347 111.304H416.653L417.306 112H419.265L419.918 112.696H421.878L422.531 113.391H424.49L425.143 114.087H427.102L427.755 114.783H429.714L430.367 115.478H432.327L432.98 116.174H434.939L435.592 116.87H437.551L438.204 117.565H440.816L441.469 118.261H443.429L444.082 118.957H445.388L446.041 119.652H448L448.653 120.348H450.612L451.265 121.043H452.571L453.225 121.739H454.531L455.184 122.435H455.837L456.49 123.13L455.837 123.826V125.913L455.184 126.609V132.87L454.531 133.565V134.957L455.184 135.652V141.217L455.837 141.913V144L456.49 144.696V145.391L457.143 146.087V147.478L457.796 148.174V148.87L459.102 150.261V150.957L460.408 152.348V153.044L464.98 157.913H465.633L466.939 159.304H467.592L468.245 160H468.898L469.551 160.696H470.204L470.857 161.391H471.51L472.163 162.087H473.469L474.122 162.783H476.082L476.735 163.478H480L480.653 164.174H481.306L481.959 164.87V168.348L481.306 169.044V170.435L480.653 171.13V172.522L480 173.217V174.609L479.347 175.304V176L478.694 176.696V178.087L478.041 178.783V179.478L477.388 180.174V180.87L476.735 181.565V182.261L476.082 182.957V183.652L475.429 184.348V185.044L474.776 185.739V186.435L473.469 187.826V188.522L472.816 189.217V189.913L471.51 191.304V192L470.857 192.696V193.391L469.551 194.783V195.478L468.245 196.87V197.565L466.286 199.652V200.348L463.02 203.826V204.522L457.143 210.783H456.49L452.571 214.957H451.918L450.612 216.348H449.959L448 218.435H447.347L446.694 219.13H446.041L444.735 220.522H444.082L442.776 221.913H442.122L441.469 222.609H440.816L440.163 223.304H439.51L438.857 224H438.204L437.551 224.696H436.898L436.245 225.391H435.592L434.939 226.087H434.286L433.633 226.783H432.327L431.673 227.478H430.367L429.714 228.174H428.408L427.755 228.87H426.449L425.796 229.565H423.837L423.184 230.261H421.225L420.571 230.957H417.959L417.306 231.652H414.041L413.388 232.348H409.469L408.816 233.044H400.98L400.327 233.739H372.245L371.592 234.435H363.755L363.102 235.13H358.531L357.878 235.826H355.265L354.612 236.522H352L351.347 237.217H350.041L349.388 237.913H347.429L346.776 238.609H345.469L344.816 239.304H343.51L342.857 240H342.204L341.551 240.696H340.245L339.592 241.391H338.939L338.286 242.087H337.633L336.98 242.783H336.327L335.673 243.478H335.02L334.367 244.174H333.714L331.755 246.261H331.102L329.143 248.348H328.49L325.225 251.826V252.522L322.612 255.304V256L321.306 257.391V258.087L320.653 258.783V259.478L320 260.174V260.87L319.347 261.565V262.261L318.694 262.957V263.652L318.041 264.348V265.043L317.388 265.739V266.435L316.735 267.13V268.522L316.082 269.217V269.913L315.429 270.609V272L314.776 272.696V274.087L314.122 274.783V276.87L313.469 277.565V279.652L312.816 280.348V282.435L312.163 283.13V285.913L311.51 286.609V290.087L310.857 290.783V295.652L310.204 296.348V302.609L309.551 303.304V316.522L308.898 317.217V325.565L309.551 326.261V337.391L310.204 338.087V343.652L310.857 344.348V349.217L311.51 349.913V354.087L312.163 354.783V358.261L312.816 358.957V362.435L313.469 363.13V366.609L314.122 367.304V371.478L314.776 372.174V375.652L315.429 376.348V381.217L316.082 381.913V387.478L316.735 388.174V393.739L317.388 394.435V402.783L318.041 403.478V412.522L318.694 413.217V425.043L319.347 425.739V443.13L320 443.826V492.522L319.347 493.217V504.348L318.694 505.043V512V510.609H338.286V485.565L337.633 484.87V462.609L338.286 461.913V435.478L337.633 434.783V413.217L336.98 412.522V400.696L336.327 400V391.652L335.673 390.957V383.304L335.02 382.609V375.652L334.367 374.957V368L333.714 367.304V358.957L333.061 358.261V346.435L332.408 345.739V320.696L333.061 320V308.174L333.714 307.478V301.217L334.367 300.522V295.652L335.02 294.957V292.174L335.673 291.478V288.696L336.327 288V285.217L336.98 284.522V283.13L337.633 282.435V280.348L338.286 279.652V278.957L338.939 278.261V276.87L339.592 276.174V275.478L340.245 274.783V273.391L340.898 272.696V272L342.204 270.609V269.913L342.857 269.217V268.522L346.122 265.043V264.348L346.776 263.652H347.429L349.388 261.565H350.041L350.694 260.87H351.347L352 260.174H352.653L353.306 259.478H353.959L354.612 258.783H356.571L357.225 258.087H360.49L361.143 257.391H387.918L388.571 256.696H400.98L401.633 256H408.163L408.816 255.304H413.388L414.041 254.609H417.959L418.612 253.913H421.225L421.878 253.217H424.49L425.143 252.522H427.755L428.408 251.826H430.367L431.02 251.13H432.327L432.98 250.435H434.939L435.592 249.739H436.898L437.551 249.044H438.204L438.857 248.348H440.163L440.816 247.652H441.469L442.122 246.957H443.429L444.082 246.261H444.735L445.388 245.565H446.041L446.694 244.87H447.347L448 244.174H448.653L449.306 243.478H449.959L450.612 242.783H451.265L451.918 242.087H452.571L453.225 241.391H453.878L455.184 240H455.837L457.143 238.609H457.796L458.449 237.913H459.102L461.061 235.826H461.714L463.02 234.435H463.673L466.286 231.652H466.939L471.51 226.783H472.163L475.429 223.304V222.609L480.653 217.044V216.348L483.265 213.565V212.87L484.571 211.478V210.783L486.531 208.696V208L487.837 206.609V205.913L488.49 205.217V204.522L489.796 203.13V202.435L491.102 201.044V200.348L491.755 199.652V198.957L492.408 198.261V197.565L493.061 196.87V196.174L493.714 195.478V194.783L494.367 194.087V193.391L495.02 192.696V192L495.673 191.304V190.609L496.327 189.913V189.217L496.98 188.522V187.826L497.633 187.13V186.435L498.286 185.739V184.348L498.939 183.652V182.957L499.592 182.261V180.87L500.245 180.174V179.478L500.898 178.783V177.391L501.551 176.696V175.304L502.204 174.609V173.217L502.857 172.522V171.13L503.51 170.435V168.348L504.163 167.652V166.261L504.816 165.565V163.478L505.469 162.783V160.696L506.122 160V157.217L506.776 156.522V154.435L507.429 153.739V151.652L508.082 150.957V149.565L508.735 148.87V147.478L509.388 146.783V146.087L510.041 145.391V144L510.694 143.304V141.913L511.347 141.217V138.435L512 137.739V130.087L511.347 129.391V126.609L510.694 125.913V124.522L510.041 123.826V122.435L509.388 121.739V121.043L508.735 120.348V119.652L507.429 118.261V117.565L501.551 111.304H500.898L499.592 109.913H498.939L498.286 109.217H497.633L496.98 108.522H495.673L495.02 107.826H493.714L493.061 107.13H491.755L491.102 106.435H488.49L487.837 105.739H484.571L483.918 105.043H480.653L480 104.348H477.388L476.735 103.652H474.122L473.469 102.957H470.857L470.204 102.261H466.939L466.286 101.565H463.673L463.02 100.87H460.408L459.755 100.174H457.143L456.49 99.4783H453.225L452.571 98.7826H449.959L449.306 98.087H446.694L446.041 97.3913H443.429L442.776 96.6957H440.163L439.51 96H436.898L436.245 95.3044H433.633L432.98 94.6087H431.02L430.367 93.9131H429.061L428.408 93.2174H426.449L425.796 92.5218H424.49L423.837 91.8261H422.531L421.878 91.1304H420.571L419.918 90.4348H419.265L418.612 89.7391H417.959L417.306 89.0435H416L415.347 88.3478H414.694L414.041 87.6522H413.388L412.082 86.2609H411.429L410.122 84.8696H409.469L404.245 79.3044V78.6087L402.939 77.2174V76.5218L401.633 75.1304V74.4348L400.98 73.7391V73.0435L400.327 72.3478V71.6522L399.673 70.9565V70.2609L399.02 69.5652V68.8696L398.367 68.1739V67.4783L397.714 66.7826V66.087L397.061 65.3913V64.6957L396.408 64V63.3043L395.755 62.6087V61.913L395.102 61.2174V60.5217L394.449 59.8261V59.1304L393.796 58.4348V57.7391L393.143 57.0435V56.3478L392.49 55.6522V54.9565L391.184 53.5652V52.8696L389.878 51.4783V50.7826L387.918 48.6957V48L385.306 45.2174V44.5217L378.776 37.5652V36.8696L378.122 36.1739H377.469L371.592 29.913H370.939L368.327 27.1304H367.673L365.061 24.3478H364.408L363.102 22.9565H362.449L361.143 21.5652H360.49L359.184 20.1739H358.531L357.225 18.7826H356.571L355.918 18.087H355.265L353.959 16.6957H353.306L352.653 16H352L351.347 15.3043H350.694L349.388 13.913H348.735L348.082 13.2174H346.776L346.122 12.5217H345.469L344.816 11.8261H344.163L343.51 11.1304H342.857L342.204 10.4348H341.551L340.898 9.73913H339.592L338.939 9.04348H338.286L337.633 8.34783H336.327L335.673 7.65217H334.367L333.714 6.95652H332.408L331.755 6.26087H331.102L330.449 5.56522H328.49L327.837 4.86957H325.878L325.225 4.17391H323.918L323.265 3.47826H320.653L320 2.78261H317.388L316.735 2.08696H313.469L312.816 1.3913H308.898L308.245 0.695652H303.02L302.367 0H275.592Z" fill="white"/>
<path fill-rule="evenodd" clip-rule="evenodd" d="M22.8571 509.217V512H318.694V505.043L319.347 504.348V493.217L320 492.522V443.826L319.347 443.13V425.739L318.694 425.043V413.217L318.041 412.522V403.478L317.388 402.783V394.435L316.735 393.739V388.174L316.082 387.478V381.913L315.429 381.217V376.348L314.776 375.652V372.174L314.122 371.478V367.304L313.469 366.609V363.13L312.816 362.435V358.957L312.163 358.261V354.783L311.51 354.087V349.913L310.857 349.217V344.348L310.204 343.652V338.087L309.551 337.391V326.261L308.898 325.565V317.217L309.551 316.522V303.304L310.204 302.609V296.348L310.857 295.652V290.783L311.51 290.087V286.609L312.163 285.913V283.13L312.816 282.435V280.348L313.469 279.652V277.565L314.122 276.87V274.783L314.776 274.087V272.696L315.429 272V270.609L316.082 269.913V269.217L316.735 268.522V267.13L317.388 266.435V265.739L318.041 265.043V264.348L318.694 263.652V262.957L319.347 262.261V261.565L320 260.87V260.174L320.653 259.478V258.783L321.306 258.087V257.391L322.612 256V255.304L325.225 252.522V251.826L328.49 248.348H329.143L331.102 246.261H331.755L333.714 244.174H334.367L335.02 243.478H335.673L336.327 242.783H336.98L337.633 242.087H338.286L338.939 241.391H339.592L340.245 240.696H341.551L342.204 240H342.857L343.51 239.304H344.816L345.469 238.609H346.776L347.429 237.913H349.388L350.041 237.217H351.347L352 236.522H354.612L355.265 235.826H357.878L358.531 235.13H363.102L363.755 234.435H371.592L372.245 233.739H400.327L400.98 233.044H408.816L409.469 232.348H413.388L414.041 231.652H417.306L417.959 230.957H420.571L421.225 230.261H423.184L423.837 229.565H425.796L426.449 228.87H427.755L428.408 228.174H429.714L430.367 227.478H431.673L432.327 226.783H433.633L434.286 226.087H434.939L435.592 225.391H436.245L436.898 224.696H437.551L438.204 224H438.857L439.51 223.304H440.163L440.816 222.609H441.469L442.122 221.913H442.776L444.082 220.522H444.735L446.041 219.13H446.694L447.347 218.435H448L449.959 216.348H450.612L451.918 214.957H452.571L456.49 210.783H457.143L463.02 204.522V203.826L466.286 200.348V199.652L468.245 197.565V196.87L469.551 195.478V194.783L470.857 193.391V192.696L471.51 192V191.304L472.816 189.913V189.217L473.469 188.522V187.826L474.776 186.435V185.739L475.429 185.044V184.348L476.082 183.652V182.957L476.735 182.261V181.565L477.388 180.87V180.174L478.041 179.478V178.783L478.694 178.087V176.696L479.347 176V175.304L480 174.609V173.217L480.653 172.522V171.13L481.306 170.435V169.044L481.959 168.348V164.87L481.306 164.174H480.653L480 163.478H476.735L476.082 162.783H474.122L473.469 162.087H472.163L471.51 161.391H470.857L470.204 160.696H469.551L468.898 160H468.245L467.592 159.304H466.939L465.633 157.913H464.98L460.408 153.044V152.348L459.102 150.957V150.261L457.796 148.87V148.174L457.143 147.478V146.087L456.49 145.391V144.696L455.837 144V141.913L455.184 141.217V135.652L454.531 134.957V133.565L455.184 132.87V126.609L455.837 125.913V123.826L456.49 123.13L455.837 122.435H455.184L454.531 121.739H453.225L452.571 121.043H451.265L450.612 120.348H448.653L448 119.652H446.041L445.388 118.957H444.082L443.429 118.261H441.469L440.816 117.565H438.204L437.551 116.87H435.592L434.939 116.174H432.98L432.327 115.478H430.367L429.714 114.783H427.755L427.102 114.087H425.143L424.49 113.391H422.531L421.878 112.696H419.918L419.265 112H417.306L416.653 111.304H415.347L414.694 110.609H413.388L412.735 109.913H411.429L410.776 109.217H409.469L408.816 108.522H408.163L407.51 107.826H406.857L406.204 107.13H405.551L404.898 106.435H404.245L403.592 105.739H402.939L401.633 104.348H400.98L400.327 103.652H399.673L397.714 101.565H397.061L387.265 91.1304V90.4348L385.959 89.0435V88.3478L384.653 86.9565V86.2609L384 85.5652V84.8696L383.347 84.1739V83.4783L382.694 82.7826V82.087L381.388 80.6957V80L380.735 79.3044V78.6087L380.082 77.913V77.2174L379.429 76.5218V75.8261L378.776 75.1304V74.4348L378.122 73.7391V73.0435L377.469 72.3478V71.6522L376.816 70.9565V70.2609L376.163 69.5652V68.8696L374.857 67.4783V66.7826L374.204 66.087V65.3913L372.898 64V63.3043L370.939 61.2174V60.5217L368.327 57.7391V57.0435L360.49 48.6957H359.837L356.571 45.2174H355.918L353.306 42.4348H352.653L351.347 41.0435H350.694L349.388 39.6522H348.735L347.429 38.2609H346.776L346.122 37.5652H345.469L344.163 36.1739H343.51L342.857 35.4783H342.204L341.551 34.7826H340.898L340.245 34.087H339.592L338.939 33.3913H338.286L337.633 32.6957H336.98L336.327 32H335.673L335.02 31.3043H334.367L333.714 30.6087H333.061L332.408 29.913H331.755L331.102 29.2174H329.796L329.143 28.5217H328.49L327.837 27.8261H326.531L325.878 27.1304H324.571L323.918 26.4348H322.612L321.959 25.7391H319.347L318.694 25.0435H316.735L316.082 24.3478H312.816L312.163 23.6522H308.245L307.592 22.9565H301.714L301.061 22.2609H274.939L274.286 22.9565H269.061L268.408 23.6522H264.49L263.837 24.3478H260.571L259.265 25.7391V28.5217L258.612 29.2174V36.8696L257.959 37.5652V43.1304L257.306 43.8261V48.6957L256.653 49.3913V53.5652L256 54.2609V59.1304L255.347 59.8261V64L254.694 64.6957V70.2609L254.041 70.9565V76.5218L253.388 77.2174V83.4783L252.735 84.1739V90.4348L252.082 91.1304V97.3913L251.429 98.087V104.348L250.776 105.043V111.304L250.122 112V118.957L249.469 119.652V125.913L248.816 126.609V132.87L248.163 133.565V139.826L247.51 140.522V146.087L246.857 146.783V153.044L246.204 153.739V158.609L245.551 159.304V164.174L244.898 164.87V169.739L244.245 170.435V174.609L243.592 175.304V178.783L242.939 179.478V182.957L242.286 183.652V186.435L241.633 187.13V189.217L240.98 189.913V192.696L240.327 193.391V195.478L239.673 196.174V198.261L239.02 198.957V201.044L238.367 201.739V203.13L237.714 203.826V205.217L237.061 205.913V207.304L236.408 208V209.391L235.755 210.087V211.478L235.102 212.174V212.87L234.449 213.565V214.957L233.796 215.652V216.348L233.143 217.044V217.739L232.49 218.435V219.13L231.184 220.522V221.217L230.531 221.913V222.609L228.571 224.696V225.391L223.347 230.957H222.694L221.388 232.348H220.735L219.429 233.739H218.776L218.122 234.435H217.469L216.816 235.13H216.163L215.51 235.826H214.204L213.551 236.522H211.592L210.939 237.217H207.673L207.02 237.913H202.449L201.796 237.217H197.224L196.571 236.522H194.612L193.959 235.826H192L191.347 235.13H190.041L189.388 234.435H188.735L188.082 233.739H186.776L186.122 233.044H184.816L184.163 232.348H183.51L182.857 231.652H182.204L181.551 230.957H180.898L180.245 230.261H179.592L178.939 229.565H178.286L177.633 228.87H176.98L176.327 228.174H175.673L175.02 227.478H174.367L173.061 226.087H172.408L171.755 225.391H171.102L170.449 224.696H169.796L168.49 223.304H167.837L166.531 221.913H165.878L164.571 220.522H163.918L162.612 219.13H161.959L160 217.044H159.347L156.735 214.261L156.082 214.957V216.348L155.429 217.044V217.739L154.776 218.435V219.826L154.122 220.522V221.913L153.469 222.609V223.304L152.816 224V225.391L152.163 226.087V227.478L151.51 228.174V228.87L150.857 229.565V230.957L150.204 231.652V233.044L149.551 233.739V234.435L148.898 235.13V236.522L148.245 237.217V237.913L147.592 238.609V240L146.939 240.696V241.391L146.286 242.087V243.478L145.633 244.174V244.87L144.98 245.565V246.957L144.327 247.652V248.348L143.673 249.044V250.435L143.02 251.13V251.826L142.367 252.522V253.217L141.714 253.913V255.304L141.061 256V256.696L140.408 257.391V258.087L139.755 258.783V259.478L139.102 260.174V261.565L138.449 262.261V262.957L137.796 263.652V264.348L137.143 265.043V265.739L136.49 266.435V267.13L135.837 267.826V269.217L135.184 269.913V270.609L134.531 271.304V272L133.878 272.696V273.391L133.225 274.087V274.783L132.571 275.478V276.174L131.918 276.87V277.565L131.265 278.261V278.957L130.612 279.652V280.348L129.959 281.043V281.739L129.306 282.435V283.13L128.653 283.826V284.522L128 285.217V285.913L127.347 286.609V287.304L126.694 288V288.696L126.041 289.391V290.087L125.388 290.783V291.478L124.082 292.87V293.565L123.429 294.261L124.735 295.652H125.388L126.041 296.348H126.694L128 297.739H128.653L129.959 299.13H130.612L131.918 300.522H132.571L135.184 303.304H135.837L141.061 308.87V309.565L143.673 312.348V313.043L144.98 314.435V315.13L146.286 316.522V317.217L146.939 317.913V318.609L147.592 319.304V320.696L148.245 321.391V322.087L148.898 322.783V324.174L149.551 324.87V326.261L150.204 326.957V329.739L150.857 330.435V336L151.51 336.696V343.652L150.857 344.348V349.217L150.204 349.913V352.696L149.551 353.391V355.478L148.898 356.174V357.565L148.245 358.261V359.652L147.592 360.348V361.739L146.939 362.435V363.13L146.286 363.826V364.522L145.633 365.217V365.913L144.98 366.609V367.304L144.327 368V368.696L143.02 370.087V370.783L141.714 372.174V372.87L139.755 374.957V375.652L132.571 383.304H131.918L129.959 385.391H129.306L128 386.783H127.347L126.694 387.478H126.041L124.735 388.87H124.082L123.429 389.565H122.122L121.469 390.261H120.816L120.163 390.957H119.51L118.857 391.652H117.551L116.898 392.348H114.939L114.286 393.043H112.327L111.673 393.739H108.408L107.755 394.435H97.9592L97.3061 393.739H93.3878L92.7347 393.043H90.7755L90.1225 392.348H88.8163L88.1633 391.652H86.8571L86.2041 390.957H84.898L84.2449 390.261H83.5918L82.9388 389.565H81.6327L80.9796 388.87H80.3265L79.6735 388.174H79.0204L78.3674 387.478H77.7143L77.0612 386.783H76.4082L75.7551 386.087H75.102L73.7959 384.696H73.1429L72.4898 384H71.8367L70.5306 382.609H69.8775L69.2245 381.913L67.2653 384V384.696L65.3061 386.783V387.478L64.6531 388.174V388.87L63.3469 390.261V390.957L62.0408 392.348V393.043L60.7347 394.435V395.13L60.0816 395.826V396.522L58.7755 397.913V398.609L58.1224 399.304V400L56.8163 401.391V402.087L56.1633 402.783V403.478L55.5102 404.174V404.87L54.2041 406.261V406.957L53.551 407.652V408.348L52.898 409.043V409.739L51.5918 411.13V411.826L50.9388 412.522V413.217L50.2857 413.913V414.609L49.6327 415.304V416L48.9796 416.696V417.391L48.3265 418.087V418.783L47.6735 419.478V420.174L47.0204 420.87V421.565L46.3674 422.261V422.957L45.7143 423.652V424.348L45.0612 425.043V425.739L44.4082 426.435V427.13L43.7551 427.826V429.217L43.102 429.913V430.609L42.449 431.304V432L41.7959 432.696V433.391L41.1429 434.087V435.478L40.4898 436.174V436.87L39.8367 437.565V438.957L39.1837 439.652V440.348L38.5306 441.043V442.435L37.8776 443.13V443.826L37.2245 444.522V445.913L36.5714 446.609V448L35.9184 448.696V449.391L35.2653 450.087V451.478L34.6122 452.174V453.565L33.9592 454.261V455.652L33.3061 456.348V457.739L32.6531 458.435V460.522L32 461.217V462.609L31.3469 463.304V464.696L30.6939 465.391V467.478L30.0408 468.174V470.261L29.3878 470.957V473.043L28.7347 473.739V475.826L28.0816 476.522V478.609L27.4286 479.304V482.087L26.7755 482.783V485.565L26.1224 486.261V489.043L25.4694 489.739V493.217L24.8163 493.913V498.087L24.1633 498.783V502.957L23.5102 503.652V508.522L22.8571 509.217ZM284 466H272C266.477 466 262 470.477 262 476V488C262 493.523 266.477 498 272 498H284C289.523 498 294 493.523 294 488V476C294 470.477 289.523 466 284 466ZM252 434H240C234.477 434 230 438.477 230 444V456C230 461.523 234.477 466 240 466H252C257.523 466 262 461.523 262 456V444C262 438.477 257.523 434 252 434ZM190 418H174C160.745 418 150 407.255 150 394V378C150 364.745 160.745 354 174 354H190C203.255 354 214 364.745 214 378V394C214 407.255 203.255 418 190 418ZM270 418H254C240.745 418 230 407.255 230 394V378C230 364.745 240.745 354 254 354H270C283.255 354 294 364.745 294 378V394C294 407.255 283.255 418 270 418ZM190 498H174C160.745 498 150 487.255 150 474V458C150 444.745 160.745 434 174 434H190C203.255 434 214 444.745 214 458V474C214 487.255 203.255 498 190 498ZM101.287 402.654L101.941 402H103.248L103.901 402.654H108.475L109.129 403.308H111.089L111.743 403.963H113.049L113.703 404.617H114.356L115.01 405.271H115.663L116.317 405.925H116.97L118.277 407.234H118.931L119.584 407.888H120.238L126.119 413.776V414.43L127.426 415.738V416.393L128.079 417.047V417.701L128.733 418.355V419.009L129.386 419.664V420.318L130.04 420.972V422.28L130.693 422.935V424.243L131.347 424.897V427.514L132 428.168V437.327L131.347 437.981V440.598L130.693 441.252V442.561L130.04 443.215V444.523L129.386 445.178V446.486L128.733 447.14V447.794L128.079 448.449V449.103L127.426 449.757V450.411L126.772 451.065V451.72L125.465 453.028V453.682L123.505 455.645V456.299L115.01 464.804H114.356L112.396 466.766H111.743L111.089 467.421H110.436L109.782 468.075H109.129L108.475 468.729H107.822L107.168 469.383H106.515L105.861 470.037H104.554L103.901 470.692H101.941L101.287 471.346H98.6733L98.0198 472H92.1386L91.4851 471.346H88.2178L87.5644 470.692H86.2574L85.604 470.037H84.297L83.6436 469.383H82.9901L82.3366 468.729H81.0297L79.7228 467.421H79.0693L77.7624 466.112H77.1089L71.2277 460.224V459.57L69.9208 458.262V457.608L69.2673 456.953V456.299L68.6139 455.645V454.991L67.9604 454.336V453.028L67.3069 452.374V451.065L66.6535 450.411V445.832L66 445.178V443.869L66.6535 443.215V437.981L67.3069 437.327V434.71L67.9604 434.056V432.748L68.6139 432.093V430.131L69.2673 429.477V428.168L69.9208 427.514V426.86L70.5743 426.206V424.897L71.2277 424.243V423.589L71.8812 422.935V422.28L73.1881 420.972V420.318L74.495 419.009V418.355L75.802 417.047V416.393L81.6832 410.505H82.3366L84.297 408.542H84.9505L86.2574 407.234H86.9109L88.2178 405.925H88.8713L89.5248 405.271H90.1782L90.8317 404.617H92.1386L92.7921 403.963H93.4455L94.099 403.308H96.0594L96.7129 402.654H101.287ZM238.447 287.663L239.106 287H247.012L247.671 287.663H250.965L251.624 288.325H253.6L254.259 288.988H255.576L256.235 289.65H256.894L257.553 290.312H258.212L258.871 290.975H259.529L260.188 291.638H260.847L261.506 292.3H262.165L270.071 300.25V300.913L271.388 302.238V302.9L272.047 303.562V304.225L272.706 304.888V305.55L273.365 306.212V307.538L274.024 308.2V308.863L274.682 309.525V311.513L275.341 312.175V315.488L276 316.15V322.112L275.341 322.775V326.088L274.682 326.75V328.075L274.024 328.737V329.4L273.365 330.062V330.725L272.706 331.388V332.05L271.388 333.375V334.038L269.412 336.025H268.753L267.435 337.35H266.776L266.118 338.013H265.459L264.8 338.675H264.141L263.482 339.338H262.165L261.506 340H248.988L248.329 339.338H246.353L245.694 338.675H244.376L243.718 338.013H242.4L241.741 337.35H241.082L240.424 336.688H239.106L238.447 336.025H237.788L236.471 334.7H235.812L235.153 334.038H234.494L233.176 332.713H232.518L229.882 330.062H229.224L226.588 327.413V326.75L224.612 324.763V324.1L223.953 323.438V322.775L223.294 322.112V321.45L222.635 320.788V320.125L221.976 319.463V318.138L221.318 317.475V316.15L220.659 315.488V312.837L220 312.175V306.212L220.659 305.55V302.238L221.318 301.575V300.25L221.976 299.587V298.263L222.635 297.6V296.938L223.294 296.275V295.613L227.906 290.975H228.565L229.882 289.65H230.541L231.2 288.988H232.518L233.176 288.325H234.494L235.153 287.663H238.447ZM180.2 242.654L180.862 242H182.185L182.846 242.654H185.492L186.154 243.309H187.477L188.138 243.963H188.8L189.462 244.617H190.785L192.108 245.926H192.769L194.754 247.889H195.415L198.062 250.506V251.16L200.708 253.778V254.432L201.369 255.086V255.741L202.692 257.049V257.704L203.354 258.358V259.667L204.015 260.321V260.975L204.677 261.63V262.938L205.338 263.593V265.556L206 266.21V274.062L205.338 274.716V276.679L204.677 277.333V278.642L204.015 279.296V280.605L203.354 281.259V281.914L202.692 282.568V283.222L201.369 284.531V285.185L199.385 287.148V287.802L197.4 289.765H196.738L194.754 291.728H194.092L192.769 293.037H192.108L191.446 293.691H190.123L189.462 294.346H188.138L187.477 295H179.538L178.877 294.346H177.554L176.892 293.691H176.231L174.908 292.383H174.246L168.954 287.148V286.494L167.631 285.185V284.531L166.969 283.877V283.222L166.308 282.568V281.914L165.646 281.259V279.951L164.985 279.296V277.988L164.323 277.333V275.37L163.662 274.716V270.136L163 269.482V264.247L163.662 263.593V259.667L164.323 259.012V257.049L164.985 256.395V255.086L165.646 254.432V253.778L166.308 253.123V252.469L166.969 251.815V251.16L167.631 250.506V249.852L172.923 244.617H173.585L174.246 243.963H174.908L175.569 243.309H176.892L177.554 242.654H180.2ZM274.278 209.649L274.917 209H283.861L284.5 209.649H285.778L286.417 210.297H287.694L288.333 210.946H288.972L292.167 214.189V214.838L293.444 216.135V216.784L294.083 217.432V218.081L294.722 218.73V220.027L295.361 220.676V222.622L296 223.27V231.703L295.361 232.351V234.297L294.722 234.946V236.243L294.083 236.892V238.189L293.444 238.838V239.486L292.806 240.135V240.784L292.167 241.432V242.081L290.889 243.378V244.027L288.972 245.973V246.622L286.417 249.216H285.778L283.861 251.162H283.222L281.944 252.459H281.306L280.667 253.108H280.028L279.389 253.757H278.75L278.111 254.405H277.472L276.833 255.054H275.556L274.917 255.703H273.639L273 256.351H269.167L268.528 257H264.056L263.417 256.351H260.861L260.222 255.703H258.944L258.306 255.054H257.667L257.028 254.405H256.389L252.556 250.514V249.865L251.917 249.216V247.919L251.278 247.27V246.622L250.639 245.973V243.378L250 242.73V235.595L250.639 234.946V231.703L251.278 231.054V229.757L251.917 229.108V227.811L252.556 227.162V225.865L253.194 225.216V224.568L254.472 223.27V222.622L255.75 221.324V220.676L260.861 215.486H261.5L263.417 213.541H264.056L264.694 212.892H265.333L265.972 212.243H266.611L267.25 211.595H267.889L268.528 210.946H269.806L270.444 210.297H271.722L272.361 209.649H274.278ZM269.333 105.641L270 105H274.667L275.333 105.641H277.333L278 106.283H278.667L279.333 106.924H280L282 108.848H282.667L286 112.054V112.696L288 114.62V115.261L288.667 115.902V116.543L289.333 117.185V117.826L290 118.467V119.109L290.667 119.75V120.391L291.333 121.033V121.674L292 122.315V124.239L292.667 124.88V126.163L293.333 126.804V129.37L294 130.011V145.402L293.333 146.043V148.609L292.667 149.25V150.533L292 151.174V152.457L291.333 153.098V154.38L290.667 155.022V155.663L290 156.304V156.946L288.667 158.228V158.87L285.333 162.076H284.667L284 162.717H283.333L282.667 163.359H281.333L280.667 164H277.333L276.667 163.359H275.333L274.667 162.717H274L273.333 162.076H272.667L268 157.587V156.946L266.667 155.663V155.022L266 154.38V153.739L265.333 153.098V152.457L264.667 151.815V151.174L264 150.533V149.891L263.333 149.25V148.609L262.667 147.967V146.685L262 146.043V144.761L261.333 144.12V142.837L260.667 142.196V140.272L260 139.63V137.707L259.333 137.065V133.859L258.667 133.217V127.446L258 126.804V123.598L258.667 122.957V118.467L259.333 117.826V115.902L260 115.261V113.978L260.667 113.337V112.696L261.333 112.054V111.413L262.667 110.13V109.489L264.667 107.565H265.333L266.667 106.283H267.333L268 105.641H269.333ZM328.453 73.6452L329.125 73H339.203L339.875 73.6452H341.891L342.562 74.2903H343.234L343.906 74.9355H344.578L345.25 75.5806H345.922L347.266 76.871H347.938L351.297 80.0968V80.7419L353.312 82.6774V83.3226L353.984 83.9678V84.6129L354.656 85.2581V86.5484L355.328 87.1936V88.4839L356 89.129V97.5161L355.328 98.1613V99.4516L354.656 100.097V101.387L353.312 102.677V103.323L351.969 104.613V105.258L348.609 108.484H347.938L345.922 110.419H345.25L344.578 111.065H343.906L343.234 111.71H341.891L341.219 112.355H339.875L339.203 113H329.125L328.453 112.355H327.109L326.438 111.71H325.094L324.422 111.065H323.75L323.078 110.419H322.406L321.062 109.129H320.391L316.359 105.258V104.613L315.016 103.323V102.677L314.344 102.032V100.742L313.672 100.097V97.5161L313 96.871V90.4194L313.672 89.7742V87.1936L314.344 86.5484V85.2581L315.016 84.6129V83.9678L315.688 83.3226V82.6774L316.359 82.0323V81.3871L318.375 79.4516V78.8065L319.719 77.5161H320.391L322.406 75.5806H323.078L323.75 74.9355H324.422L325.094 74.2903H326.438L327.109 73.6452H328.453Z" fill="white"/>
<path fill-rule="evenodd" clip-rule="evenodd" d="M254 402H270C274.418 402 278 398.418 278 394V378C278 373.582 274.418 370 270 370H254C249.582 370 246 373.582 246 378V394C246 398.418 249.582 402 254 402ZM267 375H257C253.686 375 251 377.686 251 381V391C251 394.314 253.686 397 257 397H267C270.314 397 273 394.314 273 391V381C273 377.686 270.314 375 267 375Z" fill="white"/>
<path fill-rule="evenodd" clip-rule="evenodd" d="M174 402H190C194.418 402 198 398.418 198 394V378C198 373.582 194.418 370 190 370H174C169.582 370 166 373.582 166 378V394C166 398.418 169.582 402 174 402ZM187 375H177C173.686 375 171 377.686 171 381V391C171 394.314 173.686 397 177 397H187C190.314 397 193 394.314 193 391V381C193 377.686 190.314 375 187 375Z" fill="white"/>
<path fill-rule="evenodd" clip-rule="evenodd" d="M174 482H190C194.418 482 198 478.418 198 474V458C198 453.582 194.418 450 190 450H174C169.582 450 166 453.582 166 458V474C166 478.418 169.582 482 174 482ZM187 455H177C173.686 455 171 457.686 171 461V471C171 474.314 173.686 477 177 477H187C190.314 477 193 474.314 193 471V461C193 457.686 190.314 455 187 455Z" fill="white"/>
<path d="M303.021 0.695312H308.245L308.898 1.3916H312.816L313.47 2.08691H316.734L317.388 2.78223H320L320.653 3.47852H323.266L323.918 4.17383H325.225L325.878 4.86914H327.837L328.49 5.56543H330.449L331.102 6.26074H331.755L332.408 6.95605H333.714L334.367 7.65234H335.674L336.326 8.34766H337.633L338.286 9.04395H338.938L339.592 9.73926H340.898L341.551 10.4346H342.204L342.857 11.1309H343.51L344.163 11.8262H344.816L345.47 12.5215H346.122L346.775 13.2178H348.082L348.734 13.9131H349.388L350.694 15.3047H351.347L352 16H352.653L353.306 16.6953H353.959L355.266 18.0869H355.918L356.571 18.7822H357.225L358.53 20.1738H359.184L360.49 21.5654H361.143L362.449 22.9561H363.102L364.408 24.3477H365.062L367.674 27.1309H368.326L370.938 29.9131H371.592L377.47 36.1738H378.122L378.775 36.8691V37.5654L385.306 44.5215V45.2178L387.918 48V48.6953L389.878 50.7822V51.4785L391.184 52.8691V53.5654L392.49 54.9561V55.6523L393.143 56.3477V57.0439L393.796 57.7393V58.4346L394.449 59.1309V59.8262L395.102 60.5215V61.2178L395.755 61.9131V62.6084L396.408 63.3047V64L397.062 64.6953V65.3916L397.714 66.0869V66.7822L398.367 67.4785V68.1738L399.021 68.8691V69.5654L399.674 70.2607V70.9561L400.326 71.6523V72.3477L400.979 73.0439V73.7393L401.633 74.4346V75.1309L402.938 76.5215V77.2178L404.245 78.6084V79.3047L409.47 84.8691H410.122L411.429 86.2607H412.082L413.388 87.6523H414.041L414.694 88.3477H415.347L416 89.0439H417.306L417.959 89.7393H418.612L419.266 90.4346H419.918L420.571 91.1309H421.878L422.53 91.8262H423.837L424.49 92.5215H425.796L426.449 93.2178H428.408L429.062 93.9131H430.367L431.021 94.6084H432.979L433.633 95.3047H436.245L436.898 96H439.51L440.163 96.6953H442.775L443.429 97.3916H446.041L446.694 98.0869H449.306L449.959 98.7822H452.571L453.225 99.4785H456.49L457.143 100.174H459.755L460.408 100.869H463.021L463.674 101.565H466.286L466.938 102.261H470.204L470.857 102.956H473.47L474.122 103.652H476.734L477.388 104.348H480L480.653 105.044H483.918L484.571 105.739H487.837L488.49 106.435H491.102L491.755 107.131H493.062L493.714 107.826H495.021L495.674 108.521H496.979L497.633 109.218H498.286L498.938 109.913H499.592L500.898 111.305H501.551L507.429 117.565V118.261L508.734 119.652V120.348L509.388 121.044V121.739L510.041 122.435V123.826L510.694 124.521V125.913L511.347 126.608V129.392L512 130.087V137.739L511.347 138.435V141.218L510.694 141.913V143.305L510.041 144V145.392L509.388 146.087V146.782L508.734 147.479V148.869L508.082 149.565V150.956L507.429 151.652V153.739L506.775 154.435V156.521L506.122 157.218V160L505.47 160.695V162.782L504.816 163.479V165.565L504.163 166.261V167.652L503.51 168.348V170.435L502.857 171.131V172.521L502.204 173.218V174.608L501.551 175.305V176.695L500.898 177.392V178.782L500.245 179.479V180.174L499.592 180.869V182.261L498.938 182.956V183.652L498.286 184.348V185.739L497.633 186.435V187.131L496.979 187.826V188.521L496.326 189.218V189.913L495.674 190.608V191.305L495.021 192V192.695L494.367 193.392V194.087L493.714 194.782V195.479L493.062 196.174V196.869L492.408 197.565V198.261L491.755 198.956V199.652L491.102 200.348V201.044L489.796 202.435V203.131L488.49 204.521V205.218L487.837 205.913V206.608L486.53 208V208.695L484.571 210.782V211.479L483.266 212.869V213.565L480.653 216.348V217.044L475.429 222.608V223.305L472.163 226.782H471.51L466.938 231.652H466.286L463.674 234.435H463.021L461.714 235.826H461.062L459.102 237.913H458.449L457.796 238.608H457.143L455.837 240H455.184L453.878 241.392H453.225L452.571 242.087H451.918L451.266 242.782H450.612L449.959 243.479H449.306L448.653 244.174H448L447.347 244.869H446.694L446.041 245.565H445.388L444.734 246.261H444.082L443.429 246.956H442.122L441.47 247.652H440.816L440.163 248.348H438.857L438.204 249.044H437.551L436.898 249.739H435.592L434.938 250.435H432.979L432.326 251.131H431.021L430.367 251.826H428.408L427.755 252.521H425.143L424.49 253.218H421.878L421.225 253.913H418.612L417.959 254.608H414.041L413.388 255.305H408.816L408.163 256H401.633L400.979 256.695H388.571L387.918 257.392H361.143L360.49 258.087H357.225L356.571 258.782H354.612L353.959 259.479H353.306L352.653 260.174H352L351.347 260.869H350.694L350.041 261.565H349.388L347.429 263.652H346.775L346.122 264.348V265.044L342.857 268.521V269.218L342.204 269.913V270.608L340.898 272V272.695L340.245 273.392V274.782L339.592 275.479V276.174L338.938 276.869V278.261L338.286 278.956V279.652L337.633 280.348V282.435L336.979 283.131V284.521L336.326 285.218V288L335.674 288.695V291.479L335.021 292.174V294.956L334.367 295.652V300.521L333.714 301.218V307.479L333.062 308.174V320L332.408 320.695V345.739L333.062 346.435V358.261L333.714 358.957V367.305L334.367 368V374.957L335.021 375.652V382.608L335.674 383.305V390.957L336.326 391.652V400L336.979 400.695V412.521L337.633 413.218V434.782L338.286 435.479V461.913L337.633 462.608V484.869L338.286 485.565V512H318.694V505.044L319.347 504.348V493.218L320 492.521V443.826L319.347 443.131V425.739L318.694 425.044V413.218L318.041 412.521V403.479L317.388 402.782V394.435L316.734 393.739V388.174L316.082 387.479V381.913L315.429 381.218V376.348L314.775 375.652V372.174L314.122 371.479V367.305L313.47 366.608V363.131L312.816 362.435V358.957L312.163 358.261V354.782L311.51 354.087V349.913L310.857 349.218V344.348L310.204 343.652V338.087L309.551 337.392V326.261L308.898 325.565V317.218L309.551 316.521V303.305L310.204 302.608V296.348L310.857 295.652V290.782L311.51 290.087V286.608L312.163 285.913V283.131L312.816 282.435V280.348L313.47 279.652V277.565L314.122 276.869V274.782L314.775 274.087V272.695L315.429 272V270.608L316.082 269.913V269.218L316.734 268.521V267.131L317.388 266.435V265.739L318.041 265.044V264.348L318.694 263.652V262.956L319.347 262.261V261.565L320 260.869V260.174L320.653 259.479V258.782L321.306 258.087V257.392L322.612 256V255.305L325.225 252.521V251.826L328.49 248.348H329.143L331.102 246.261H331.755L333.714 244.174H334.367L335.021 243.479H335.674L336.326 242.782H336.979L337.633 242.087H338.286L338.938 241.392H339.592L340.245 240.695H341.551L342.204 240H342.857L343.51 239.305H344.816L345.47 238.608H346.775L347.429 237.913H349.388L350.041 237.218H351.347L352 236.521H354.612L355.266 235.826H357.878L358.53 235.131H363.102L363.755 234.435H371.592L372.245 233.739H400.326L400.979 233.044H408.816L409.47 232.348H413.388L414.041 231.652H417.306L417.959 230.956H420.571L421.225 230.261H423.184L423.837 229.565H425.796L426.449 228.869H427.755L428.408 228.174H429.714L430.367 227.479H431.674L432.326 226.782H433.633L434.286 226.087H434.938L435.592 225.392H436.245L436.898 224.695H437.551L438.204 224H438.857L439.51 223.305H440.163L440.816 222.608H441.47L442.122 221.913H442.775L444.082 220.521H444.734L446.041 219.131H446.694L447.347 218.435H448L449.959 216.348H450.612L451.918 214.956H452.571L456.49 210.782H457.143L463.021 204.521V203.826L466.286 200.348V199.652L468.245 197.565V196.869L469.551 195.479V194.782L470.857 193.392V192.695L471.51 192V191.305L472.816 189.913V189.218L473.47 188.521V187.826L474.775 186.435V185.739L475.429 185.044V184.348L476.082 183.652V182.956L476.734 182.261V181.565L477.388 180.869V180.174L478.041 179.479V178.782L478.694 178.087V176.695L479.347 176V175.305L480 174.608V173.218L480.653 172.521V171.131L481.306 170.435V169.044L481.959 168.348V164.869L481.306 164.174H480.653L480 163.479H476.734L476.082 162.782H474.122L473.47 162.087H472.163L471.51 161.392H470.857L470.204 160.695H469.551L468.898 160H468.245L467.592 159.305H466.938L465.633 157.913H464.979L460.408 153.044V152.348L459.102 150.956V150.261L457.796 148.869V148.174L457.143 147.479V146.087L456.49 145.392V144.695L455.837 144V141.913L455.184 141.218V135.652L454.53 134.956V133.565L455.184 132.869V126.608L455.837 125.913V123.826L456.49 123.131L455.837 122.435H455.184L454.53 121.739H453.225L452.571 121.044H451.266L450.612 120.348H448.653L448 119.652H446.041L445.388 118.956H444.082L443.429 118.261H441.47L440.816 117.565H438.204L437.551 116.869H435.592L434.938 116.174H432.979L432.326 115.479H430.367L429.714 114.782H427.755L427.102 114.087H425.143L424.49 113.392H422.53L421.878 112.695H419.918L419.266 112H417.306L416.653 111.305H415.347L414.694 110.608H413.388L412.734 109.913H411.429L410.775 109.218H409.47L408.816 108.521H408.163L407.51 107.826H406.857L406.204 107.131H405.551L404.898 106.435H404.245L403.592 105.739H402.938L401.633 104.348H400.979L400.326 103.652H399.674L397.714 101.565H397.062L387.266 91.1309V90.4346L385.959 89.0439V88.3477L384.653 86.9561V86.2607L384 85.5654V84.8691L383.347 84.1738V83.4785L382.694 82.7822V82.0869L381.388 80.6953V80L380.734 79.3047V78.6084L380.082 77.9131V77.2178L379.429 76.5215V75.8262L378.775 75.1309V74.4346L378.122 73.7393V73.0439L377.47 72.3477V71.6523L376.816 70.9561V70.2607L376.163 69.5654V68.8691L374.857 67.4785V66.7822L374.204 66.0869V65.3916L372.898 64V63.3047L370.938 61.2178V60.5215L368.326 57.7393V57.0439L360.49 48.6953H359.837L356.571 45.2178H355.918L353.306 42.4346H352.653L351.347 41.0439H350.694L349.388 39.6523H348.734L347.429 38.2607H346.775L346.122 37.5654H345.47L344.163 36.1738H343.51L342.857 35.4785H342.204L341.551 34.7822H340.898L340.245 34.0869H339.592L338.938 33.3916H338.286L337.633 32.6953H336.979L336.326 32H335.674L335.021 31.3047H334.367L333.714 30.6084H333.062L332.408 29.9131H331.755L331.102 29.2178H329.796L329.143 28.5215H328.49L327.837 27.8262H326.53L325.878 27.1309H324.571L323.918 26.4346H322.612L321.959 25.7393H319.347L318.694 25.0439H316.734L316.082 24.3477H312.816L312.163 23.6523H308.245L307.592 22.9561H301.714L301.062 22.2607H274.938L274.286 22.9561H269.062L268.408 23.6523H264.49L263.837 24.3477H260.571L259.266 25.7393V28.5215L258.612 29.2178V36.8691L257.959 37.5654V43.1309L257.306 43.8262V48.6953L256.653 49.3916V53.5654L256 54.2607V59.1309L255.347 59.8262V64L254.694 64.6953V70.2607L254.041 70.9561V76.5215L253.388 77.2178V83.4785L252.734 84.1738V90.4346L252.082 91.1309V97.3916L251.429 98.0869V104.348L250.775 105.044V111.305L250.122 112V118.956L249.47 119.652V125.913L248.816 126.608V132.869L248.163 133.565V139.826L247.51 140.521V146.087L246.857 146.782V153.044L246.204 153.739V158.608L245.551 159.305V164.174L244.898 164.869V169.739L244.245 170.435V174.608L243.592 175.305V178.782L242.938 179.479V182.956L242.286 183.652V186.435L241.633 187.131V189.218L240.979 189.913V192.695L240.326 193.392V195.479L239.674 196.174V198.261L239.021 198.956V201.044L238.367 201.739V203.131L237.714 203.826V205.218L237.062 205.913V207.305L236.408 208V209.392L235.755 210.087V211.479L235.102 212.174V212.869L234.449 213.565V214.956L233.796 215.652V216.348L233.143 217.044V217.739L232.49 218.435V219.131L231.184 220.521V221.218L230.53 221.913V222.608L228.571 224.695V225.392L223.347 230.956H222.694L221.388 232.348H220.734L219.429 233.739H218.775L218.122 234.435H217.47L216.816 235.131H216.163L215.51 235.826H214.204L213.551 236.521H211.592L210.938 237.218H207.674L207.021 237.913H202.449L201.796 237.218H197.225L196.571 236.521H194.612L193.959 235.826H192L191.347 235.131H190.041L189.388 234.435H188.734L188.082 233.739H186.775L186.122 233.044H184.816L184.163 232.348H183.51L182.857 231.652H182.204L181.551 230.956H180.898L180.245 230.261H179.592L178.938 229.565H178.286L177.633 228.869H176.979L176.326 228.174H175.674L175.021 227.479H174.367L173.062 226.087H172.408L171.755 225.392H171.102L170.449 224.695H169.796L168.49 223.305H167.837L166.53 221.913H165.878L164.571 220.521H163.918L162.612 219.131H161.959L160 217.044H159.347L156.734 214.261L156.082 214.956V216.348L155.429 217.044V217.739L154.775 218.435V219.826L154.122 220.521V221.913L153.47 222.608V223.305L152.816 224V225.392L152.163 226.087V227.479L151.51 228.174V228.869L150.857 229.565V230.956L150.204 231.652V233.044L149.551 233.739V234.435L148.898 235.131V236.521L148.245 237.218V237.913L147.592 238.608V240L146.938 240.695V241.392L146.286 242.087V243.479L145.633 244.174V244.869L144.979 245.565V246.956L144.326 247.652V248.348L143.674 249.044V250.435L143.021 251.131V251.826L142.367 252.521V253.218L141.714 253.913V255.305L141.062 256V256.695L140.408 257.392V258.087L139.755 258.782V259.479L139.102 260.174V261.565L138.449 262.261V262.956L137.796 263.652V264.348L137.143 265.044V265.739L136.49 266.435V267.131L135.837 267.826V269.218L135.184 269.913V270.608L134.53 271.305V272L133.878 272.695V273.392L133.225 274.087V274.782L132.571 275.479V276.174L131.918 276.869V277.565L131.266 278.261V278.956L130.612 279.652V280.348L129.959 281.044V281.739L129.306 282.435V283.131L128.653 283.826V284.521L128 285.218V285.913L127.347 286.608V287.305L126.694 288V288.695L126.041 289.392V290.087L125.388 290.782V291.479L124.082 292.869V293.565L123.429 294.261L124.734 295.652H125.388L126.041 296.348H126.694L128 297.739H128.653L129.959 299.131H130.612L131.918 300.521H132.571L135.184 303.305H135.837L141.062 308.869V309.565L143.674 312.348V313.044L144.979 314.435V315.131L146.286 316.521V317.218L146.938 317.913V318.608L147.592 319.305V320.695L148.245 321.392V322.087L148.898 322.782V324.174L149.551 324.869V326.261L150.204 326.957V329.739L150.857 330.435V336L151.51 336.695V343.652L150.857 344.348V349.218L150.204 349.913V352.695L149.551 353.392V355.479L148.898 356.174V357.565L148.245 358.261V359.652L147.592 360.348V361.739L146.938 362.435V363.131L146.286 363.826V364.521L145.633 365.218V365.913L144.979 366.608V367.305L144.326 368V368.695L143.021 370.087V370.782L141.714 372.174V372.869L139.755 374.957V375.652L132.571 383.305H131.918L129.959 385.392H129.306L128 386.782H127.347L126.694 387.479H126.041L124.734 388.869H124.082L123.429 389.565H122.122L121.47 390.261H120.816L120.163 390.957H119.51L118.857 391.652H117.551L116.898 392.348H114.938L114.286 393.044H112.326L111.674 393.739H108.408L107.755 394.435H97.959L97.3057 393.739H93.3877L92.7344 393.044H90.7754L90.1221 392.348H88.8164L88.1631 391.652H86.8574L86.2041 390.957H84.8984L84.2451 390.261H83.5918L82.9385 389.565H81.6328L80.9795 388.869H80.3262L79.6738 388.174H79.0205L78.3672 387.479H77.7139L77.0615 386.782H76.4082L75.7549 386.087H75.1016L73.7959 384.695H73.1426L72.4902 384H71.8369L70.5303 382.608H69.8779L69.2246 381.913L67.2656 384V384.695L65.3057 386.782V387.479L64.6533 388.174V388.869L63.3467 390.261V390.957L62.041 392.348V393.044L60.7344 394.435V395.131L60.082 395.826V396.521L58.7754 397.913V398.608L58.1221 399.305V400L56.8164 401.392V402.087L56.1631 402.782V403.479L55.5098 404.174V404.869L54.2041 406.261V406.957L53.5508 407.652V408.348L52.8984 409.044V409.739L51.5918 411.131V411.826L50.9385 412.521V413.218L50.2861 413.913V414.608L49.6328 415.305V416L48.9795 416.695V417.392L48.3262 418.087V418.782L47.6738 419.479V420.174L47.0205 420.869V421.565L46.3672 422.261V422.957L45.7139 423.652V424.348L45.0615 425.044V425.739L44.4082 426.435V427.131L43.7549 427.826V429.218L43.1016 429.913V430.608L42.4492 431.305V432L41.7959 432.695V433.392L41.1426 434.087V435.479L40.4902 436.174V436.869L39.8369 437.565V438.957L39.1836 439.652V440.348L38.5303 441.044V442.435L37.8779 443.131V443.826L37.2246 444.521V445.913L36.5713 446.608V448L35.918 448.695V449.392L35.2656 450.087V451.479L34.6123 452.174V453.565L33.959 454.261V455.652L33.3057 456.348V457.739L32.6533 458.435V460.521L32 461.218V462.608L31.3467 463.305V464.695L30.6943 465.392V467.479L30.041 468.174V470.261L29.3877 470.957V473.044L28.7344 473.739V475.826L28.082 476.521V478.608L27.4287 479.305V482.087L26.7754 482.782V485.565L26.1221 486.261V489.044L25.4697 489.739V493.218L24.8164 493.913V498.087L24.1631 498.782V502.957L23.5098 503.652V508.521L22.8574 509.218V512H0V510.608L0.65332 509.913V502.261L1.30566 501.565V496L1.95898 495.305V491.131L2.6123 490.435V486.957L3.26562 486.261V482.782L3.91797 482.087V479.305L4.57129 478.608V476.521L5.22461 475.826V473.739L5.87793 473.044V470.957L6.53027 470.261V468.174L7.18359 467.479V465.392L7.83691 464.695V463.305L8.49023 462.608V460.521L9.14258 459.826V458.435L9.7959 457.739V456.348L10.4492 455.652V454.261L11.1016 453.565V452.174L11.7549 451.479V450.087L12.4082 449.392V448L13.0615 447.305V446.608L13.7139 445.913V444.521L14.3672 443.826V442.435L15.0205 441.739V441.044L15.6738 440.348V438.957L16.3262 438.261V437.565L16.9795 436.869V435.479L17.6328 434.782V434.087L18.2861 433.392V432.695L18.9385 432V430.608L19.5918 429.913V429.218L20.2451 428.521V427.826L20.8984 427.131V426.435L21.5508 425.739V424.348L22.2041 423.652V422.957L22.8574 422.261V421.565L23.5098 420.869V420.174L24.1631 419.479V418.782L24.8164 418.087V417.392L25.4697 416.695V416L26.1221 415.305V414.608L26.7754 413.913V413.218L27.4287 412.521V411.826L28.082 411.131V410.435L28.7344 409.739V409.044L29.3877 408.348V407.652L30.041 406.957V406.261L30.6943 405.565V404.869L32 403.479V402.782L32.6533 402.087V401.392L33.3057 400.695V400L34.6123 398.608V397.913L35.2656 397.218V396.521L35.918 395.826V395.131L37.2246 393.739V393.044L37.8779 392.348V391.652L39.1836 390.261V389.565L39.8369 388.869V388.174L41.1426 386.782V386.087L41.7959 385.392V384.695L43.1016 383.305V382.608L44.4082 381.218V380.521L45.7139 379.131V378.435L47.0205 377.044V376.348L47.6738 375.652V374.957L49.6328 372.869V372.174L50.9385 370.782V370.087L52.2451 368.695V368L53.5508 366.608V365.913L54.8574 364.521V363.826L56.8164 361.739V361.044L58.1221 359.652V358.957L60.082 356.869V356.174L61.3877 354.782V354.087L63.3467 352V351.305L65.3057 349.218V348.521L66.6123 347.131V346.435L68.5713 344.348V343.652L69.8779 342.261V341.565L71.1836 340.174V339.479L73.1426 337.392V336.695L74.4492 335.305V334.608L76.4082 332.521V331.826L77.7139 330.435V329.739L79.0205 328.348V327.652L80.3262 326.261V325.565L81.6328 324.174V323.479L82.9385 322.087V321.392L84.2451 320V319.305L86.2041 317.218V316.521L87.5098 315.131V314.435L88.1631 313.739V313.044L89.4697 311.652V310.956L90.7754 309.565V308.869L92.082 307.479V306.782L92.7344 306.087V305.392L94.041 304V303.305L94.6943 302.608V301.913L96 300.521V299.826L97.3057 298.435V297.739L97.959 297.044V296.348L98.6123 295.652V294.956L99.918 293.565V292.869L100.571 292.174V291.479L101.878 290.087V289.392L102.53 288.695V288L103.184 287.305V286.608L104.49 285.218V284.521L105.143 283.826V283.131L105.796 282.435V281.739L106.449 281.044V280.348L107.755 278.956V278.261L108.408 277.565V276.869L109.062 276.174V275.479L109.714 274.782V274.087L110.367 273.392V272.695L111.021 272V271.305L111.674 270.608V269.913L112.326 269.218V268.521L112.979 267.826V267.131L113.633 266.435V265.739L114.286 265.044V264.348L114.938 263.652V262.956L115.592 262.261V261.565L116.245 260.869V260.174L116.898 259.479V258.782L117.551 258.087V257.392L118.204 256.695V256L118.857 255.305V254.608L119.51 253.913V252.521L120.163 251.826V251.131L120.816 250.435V249.739L121.47 249.044V248.348L122.122 247.652V246.261L122.775 245.565V244.869L123.429 244.174V243.479L124.082 242.782V241.392L124.734 240.695V240L125.388 239.305V238.608L126.041 237.913V236.521L126.694 235.826V235.131L127.347 234.435V233.044L128 232.348V231.652L128.653 230.956V229.565L129.306 228.869V228.174L129.959 227.479V226.087L130.612 225.392V224L131.266 223.305V222.608L131.918 221.913V220.521L132.571 219.826V219.131L133.225 218.435V217.044L133.878 216.348V214.956L134.53 214.261V212.869L135.184 212.174V210.782L135.837 210.087V209.392L136.49 208.695V207.305L137.143 206.608V205.218L137.796 204.521V203.131L138.449 202.435V201.044L139.102 200.348V198.956L122.775 181.565V180.869L119.51 177.392V176.695L117.551 174.608V173.913L115.592 171.826V171.131L113.633 169.044V168.348L112.326 166.956V166.261L111.021 164.869V164.174L110.367 163.479V162.782L109.062 161.392V160.695L108.408 160V159.305L107.755 158.608V157.913L106.449 156.521V155.826L105.796 155.131V153.739L105.143 153.044V152.348L104.49 151.652V150.956L103.837 150.261V148.869L103.184 148.174V146.782L102.53 146.087V144.695L101.878 144V141.913L101.225 141.218V138.435L100.571 137.739V122.435L101.225 121.739V118.956L101.878 118.261V116.174L102.53 115.479V114.087L103.184 113.392V112.695L103.837 112V110.608L104.49 109.913V109.218L105.143 108.521V107.826L105.796 107.131V106.435L106.449 105.739V105.044L107.755 103.652V102.956L109.062 101.565V100.869L110.367 99.4785V98.7822L112.326 96.6953V96L114.938 93.2178V92.5215L118.204 89.0439V88.3477L123.429 82.7822V82.0869L139.755 64.6953H140.408L145.633 59.1309H146.286L149.551 55.6523H150.204L152.816 52.8691H153.47L155.429 50.7822H156.082L158.041 48.6953H158.694L160.653 46.6084H161.306L162.612 45.2178H163.266L164.571 43.8262H165.225L166.53 42.4346H167.184L168.49 41.0439H169.143L170.449 39.6523H171.102L172.408 38.2607H173.062L174.367 36.8691H175.021L175.674 36.1738H176.326L177.633 34.7822H178.286L178.938 34.0869H179.592L180.898 32.6953H181.551L182.204 32H182.857L183.51 31.3047H184.163L184.816 30.6084H185.47L186.775 29.2178H187.429L188.082 28.5215H188.734L189.388 27.8262H190.041L190.694 27.1309H191.347L192 26.4346H192.653L193.306 25.7393H193.959L194.612 25.0439H195.266L195.918 24.3477H196.571L197.225 23.6523H197.878L198.53 22.9561H199.184L199.837 22.2607H200.49L201.143 21.5654H201.796L202.449 20.8691H203.755L204.408 20.1738H205.062L205.714 19.4785H206.367L207.021 18.7822H208.326L208.979 18.0869H209.633L210.286 17.3916H210.938L211.592 16.6953H212.898L213.551 16H214.204L214.857 15.3047H216.163L216.816 14.6084H218.122L218.775 13.9131H219.429L220.082 13.2178H221.388L222.041 12.5215H223.347L224 11.8262H225.306L225.959 11.1309H227.266L227.918 10.4346H229.225L229.878 9.73926H231.837L232.49 9.04395H233.796L234.449 8.34766H235.755L236.408 7.65234H238.367L239.021 6.95605H240.979L241.633 6.26074H243.592L244.245 5.56543H246.204L246.857 4.86914H248.816L249.47 4.17383H252.082L252.734 3.47852H256L256.653 2.78223H259.266L259.918 2.08691H263.837L264.49 1.3916H268.408L269.062 0.695312H274.938L275.592 0H302.367L303.021 0.695312ZM190 434C203.255 434 214 444.745 214 458V474C214 487.255 203.255 498 190 498H174C160.745 498 150 487.255 150 474V458C150 444.745 160.745 434 174 434H190ZM284 466C289.523 466 294 470.477 294 476V488C294 493.523 289.523 498 284 498H272C266.477 498 262 493.523 262 488V476C262 470.477 266.477 466 272 466H284ZM174 450C169.582 450 166 453.582 166 458V474C166 478.418 169.582 482 174 482H190C194.418 482 198 478.418 198 474V458C198 453.582 194.418 450 190 450H174ZM187 455C190.314 455 193 457.686 193 461V471C193 474.314 190.314 477 187 477H177C173.686 477 171 474.314 171 471V461C171 457.686 173.686 455 177 455H187ZM103.901 402.654H108.476L109.129 403.309H111.089L111.742 403.963H113.05L113.703 404.617H114.356L115.01 405.271H115.663L116.316 405.925H116.971L118.277 407.233H118.931L119.584 407.888H120.237L126.119 413.775V414.43L127.426 415.738V416.393L128.079 417.047V417.701L128.732 418.355V419.01L129.386 419.663V420.317L130.04 420.972V422.28L130.693 422.935V424.243L131.347 424.897V427.514L132 428.168V437.327L131.347 437.981V440.598L130.693 441.252V442.561L130.04 443.215V444.523L129.386 445.178V446.486L128.732 447.141V447.794L128.079 448.448V449.103L127.426 449.757V450.411L126.772 451.065V451.72L125.466 453.028V453.683L123.505 455.645V456.299L115.01 464.804H114.356L112.396 466.767H111.742L111.089 467.421H110.436L109.782 468.075H109.129L108.476 468.729H107.822L107.168 469.383H106.515L105.861 470.037H104.555L103.901 470.691H101.94L101.287 471.346H98.6729L98.0195 472H92.1387L91.4854 471.346H88.2178L87.5645 470.691H86.2578L85.6035 470.037H84.2969L83.6436 469.383H82.9902L82.3369 468.729H81.0293L79.7227 467.421H79.0693L77.7627 466.112H77.1094L71.2275 460.225V459.57L69.9209 458.262V457.607L69.2676 456.953V456.299L68.6143 455.645V454.99L67.96 454.337V453.028L67.3066 452.374V451.065L66.6533 450.411V445.832L66 445.178V443.869L66.6533 443.215V437.981L67.3066 437.327V434.71L67.96 434.056V432.748L68.6143 432.094V430.131L69.2676 429.477V428.168L69.9209 427.514V426.859L70.5742 426.206V424.897L71.2275 424.243V423.589L71.8809 422.935V422.28L73.1885 420.972V420.317L74.4951 419.01V418.355L75.8018 417.047V416.393L81.6836 410.505H82.3369L84.2969 408.542H84.9502L86.2578 407.233H86.9111L88.2178 405.925H88.8711L89.5244 405.271H90.1777L90.832 404.617H92.1387L92.792 403.963H93.4453L94.0986 403.309H96.0596L96.7129 402.654H101.287L101.94 402H103.247L103.901 402.654ZM252 434C257.523 434 262 438.477 262 444V456C262 461.523 257.523 466 252 466H240C234.477 466 230 461.523 230 456V444C230 438.477 234.477 434 240 434H252ZM190 354C203.255 354 214 364.745 214 378V394C214 407.255 203.255 418 190 418H174C160.745 418 150 407.255 150 394V378C150 364.745 160.745 354 174 354H190ZM270 354C283.255 354 294 364.745 294 378V394C294 407.255 283.255 418 270 418H254C240.745 418 230 407.255 230 394V378C230 364.745 240.745 354 254 354H270ZM174 370C169.582 370 166 373.582 166 378V394C166 398.418 169.582 402 174 402H190C194.418 402 198 398.418 198 394V378C198 373.582 194.418 370 190 370H174ZM254 370C249.582 370 246 373.582 246 378V394C246 398.418 249.582 402 254 402H270C274.418 402 278 398.418 278 394V378C278 373.582 274.418 370 270 370H254ZM187 375C190.314 375 193 377.686 193 381V391C193 394.314 190.314 397 187 397H177C173.686 397 171 394.314 171 391V381C171 377.686 173.686 375 177 375H187ZM267 375C270.314 375 273 377.686 273 381V391C273 394.314 270.314 397 267 397H257C253.686 397 251 394.314 251 391V381C251 377.686 253.686 375 257 375H267ZM247.671 287.662H250.965L251.623 288.325H253.6L254.259 288.987H255.576L256.235 289.65H256.895L257.553 290.312H258.212L258.87 290.975H259.529L260.188 291.638H260.847L261.506 292.3H262.165L270.07 300.25V300.912L271.389 302.237V302.9L272.047 303.562V304.225L272.706 304.888V305.55L273.364 306.213V307.537L274.023 308.2V308.862L274.683 309.525V311.513L275.341 312.175V315.487L276 316.15V322.112L275.341 322.775V326.088L274.683 326.75V328.075L274.023 328.737V329.4L273.364 330.062V330.725L272.706 331.388V332.05L271.389 333.375V334.037L269.412 336.025H268.753L267.436 337.35H266.776L266.117 338.013H265.459L264.8 338.675H264.142L263.482 339.338H262.165L261.506 340H248.988L248.329 339.338H246.353L245.694 338.675H244.377L243.718 338.013H242.4L241.741 337.35H241.082L240.424 336.688H239.105L238.447 336.025H237.788L236.471 334.7H235.812L235.153 334.037H234.494L233.177 332.713H232.518L229.883 330.062H229.224L226.588 327.412V326.75L224.611 324.763V324.1L223.953 323.438V322.775L223.294 322.112V321.45L222.636 320.787V320.125L221.977 319.463V318.138L221.317 317.475V316.15L220.659 315.487V312.838L220 312.175V306.213L220.659 305.55V302.237L221.317 301.575V300.25L221.977 299.588V298.263L222.636 297.6V296.938L223.294 296.275V295.612L227.906 290.975H228.564L229.883 289.65H230.541L231.2 288.987H232.518L233.177 288.325H234.494L235.153 287.662H238.447L239.105 287H247.012L247.671 287.662ZM182.846 242.654H185.492L186.154 243.309H187.477L188.139 243.963H188.8L189.462 244.617H190.784L192.107 245.926H192.77L194.754 247.889H195.415L198.062 250.506V251.16L200.708 253.777V254.432L201.369 255.086V255.741L202.692 257.05V257.704L203.354 258.358V259.667L204.016 260.321V260.976L204.677 261.63V262.938L205.339 263.593V265.556L206 266.21V274.062L205.339 274.716V276.679L204.677 277.333V278.642L204.016 279.296V280.604L203.354 281.259V281.914L202.692 282.568V283.223L201.369 284.531V285.186L199.385 287.148V287.803L197.4 289.766H196.738L194.754 291.729H194.093L192.77 293.037H192.107L191.446 293.691H190.123L189.462 294.346H188.139L187.477 295H179.538L178.877 294.346H177.554L176.893 293.691H176.23L174.907 292.383H174.246L168.954 287.148V286.494L167.631 285.186V284.531L166.969 283.877V283.223L166.308 282.568V281.914L165.646 281.259V279.95L164.984 279.296V277.987L164.323 277.333V275.37L163.661 274.716V270.136L163 269.481V264.247L163.661 263.593V259.667L164.323 259.013V257.05L164.984 256.396V255.086L165.646 254.432V253.777L166.308 253.123V252.469L166.969 251.814V251.16L167.631 250.506V249.852L172.923 244.617H173.585L174.246 243.963H174.907L175.569 243.309H176.893L177.554 242.654H180.2L180.861 242H182.185L182.846 242.654ZM284.5 209.648H285.777L286.417 210.297H287.694L288.333 210.946H288.973L292.167 214.189V214.838L293.444 216.135V216.784L294.083 217.433V218.081L294.723 218.729V220.027L295.361 220.676V222.622L296 223.271V231.703L295.361 232.352V234.297L294.723 234.946V236.243L294.083 236.892V238.189L293.444 238.838V239.486L292.806 240.135V240.784L292.167 241.433V242.081L290.889 243.378V244.027L288.973 245.973V246.622L286.417 249.216H285.777L283.861 251.162H283.223L281.944 252.459H281.306L280.667 253.108H280.027L279.389 253.757H278.75L278.111 254.405H277.473L276.833 255.054H275.556L274.917 255.703H273.639L273 256.352H269.167L268.527 257H264.056L263.417 256.352H260.861L260.223 255.703H258.944L258.306 255.054H257.667L257.027 254.405H256.389L252.556 250.514V249.865L251.917 249.216V247.919L251.277 247.271V246.622L250.639 245.973V243.378L250 242.729V235.595L250.639 234.946V231.703L251.277 231.054V229.757L251.917 229.108V227.811L252.556 227.162V225.865L253.194 225.216V224.567L254.473 223.271V222.622L255.75 221.324V220.676L260.861 215.486H261.5L263.417 213.541H264.056L264.694 212.892H265.333L265.973 212.243H266.611L267.25 211.595H267.889L268.527 210.946H269.806L270.444 210.297H271.723L272.361 209.648H274.277L274.917 209H283.861L284.5 209.648ZM275.333 105.642H277.333L278 106.282H278.667L279.333 106.924H280L282 108.848H282.667L286 112.055V112.695L288 114.619V115.261L288.667 115.902V116.544L289.333 117.185V117.826L290 118.468V119.108L290.667 119.75V120.392L291.333 121.032V121.674L292 122.315V124.239L292.667 124.881V126.163L293.333 126.805V129.369L294 130.011V145.402L293.333 146.044V148.608L292.667 149.25V150.532L292 151.174V152.456L291.333 153.098V154.381L290.667 155.021V155.663L290 156.305V156.945L288.667 158.229V158.869L285.333 162.076H284.667L284 162.718H283.333L282.667 163.358H281.333L280.667 164H277.333L276.667 163.358H275.333L274.667 162.718H274L273.333 162.076H272.667L268 157.587V156.945L266.667 155.663V155.021L266 154.381V153.739L265.333 153.098V152.456L264.667 151.815V151.174L264 150.532V149.892L263.333 149.25V148.608L262.667 147.968V146.685L262 146.044V144.761L261.333 144.119V142.837L260.667 142.195V140.271L260 139.631V137.706L259.333 137.065V133.858L258.667 133.218V127.445L258 126.805V123.598L258.667 122.956V118.468L259.333 117.826V115.902L260 115.261V113.979L260.667 113.337V112.695L261.333 112.055V111.413L262.667 110.131V109.489L264.667 107.565H265.333L266.667 106.282H267.333L268 105.642H269.333L270 105H274.667L275.333 105.642ZM339.875 73.6455H341.891L342.562 74.29H343.234L343.906 74.9355H344.578L345.25 75.5811H345.922L347.266 76.8711H347.938L351.297 80.0967V80.7422L353.312 82.6777V83.3223L353.984 83.9678V84.6133L354.656 85.2578V86.5488L355.328 87.1934V88.4834L356 89.1289V97.5166L355.328 98.1611V99.4512L354.656 100.097V101.387L353.312 102.678V103.322L351.969 104.613V105.258L348.609 108.483H347.938L345.922 110.419H345.25L344.578 111.064H343.906L343.234 111.71H341.891L341.219 112.354H339.875L339.203 113H329.125L328.453 112.354H327.109L326.438 111.71H325.094L324.422 111.064H323.75L323.078 110.419H322.406L321.062 109.129H320.391L316.359 105.258V104.613L315.016 103.322V102.678L314.344 102.032V100.742L313.672 100.097V97.5166L313 96.8711V90.4189L313.672 89.7744V87.1934L314.344 86.5488V85.2578L315.016 84.6133V83.9678L315.688 83.3223V82.6777L316.359 82.0322V81.3867L318.375 79.4512V78.8066L319.719 77.5166H320.391L322.406 75.5811H323.078L323.75 74.9355H324.422L325.094 74.29H326.438L327.109 73.6455H328.453L329.125 73H339.203L339.875 73.6455Z" fill="black"/>
</g>
<defs>
<clipPath id="clip0_65_2">
<rect width="512" height="512" fill="white"/>
</clipPath>
</defs>
</svg>
